<svg width="34" height="32" viewBox="0 0 34 32" fill="none" xmlns="http://www.w3.org/2000/svg">
<path d="M16.9475 29.3333C24.6508 29.3333 30.8955 23.3638 30.8955 16C30.8955 8.63616 24.6508 2.66663 16.9475 2.66663C9.24424 2.66663 2.99951 8.63616 2.99951 16C2.99951 23.3638 9.24424 29.3333 16.9475 29.3333Z" stroke="#095896" stroke-width="3" stroke-linecap="round"/>
<path d="M11.3684 12.0667V11.9333M22.5268 12.0667V11.9333" stroke="#095896" stroke-width="3" stroke-linecap="round"/>
<path d="M16.9476 24C18.4273 24 19.8464 23.4381 20.8927 22.4379C21.939 21.4377 22.5268 20.0811 22.5268 18.6666H11.3684C11.3684 20.0811 11.9562 21.4377 13.0025 22.4379C14.0488 23.4381 15.4679 24 16.9476 24Z" stroke="#095896" stroke-width="3" stroke-linecap="round" stroke-linejoin="round"/>
</svg>
