<svg width="40" height="40" viewBox="0 0 40 40" fill="none" xmlns="http://www.w3.org/2000/svg">
<path d="M18.8332 32.1667C18.5276 31.8611 18.3676 31.4722 18.3532 31C18.3398 30.5278 18.4859 30.1389 18.7915 29.8333L26.9582 21.6667H8.33317C7.86095 21.6667 7.46484 21.5067 7.14484 21.1867C6.82595 20.8678 6.6665 20.4722 6.6665 20C6.6665 19.5278 6.82595 19.1317 7.14484 18.8117C7.46484 18.4928 7.86095 18.3333 8.33317 18.3333H26.9582L18.7915 10.1667C18.4859 9.86111 18.3398 9.47222 18.3532 9C18.3676 8.52778 18.5276 8.13889 18.8332 7.83333C19.1387 7.52778 19.5276 7.375 19.9998 7.375C20.4721 7.375 20.8609 7.52778 21.1665 7.83333L32.1665 18.8333C32.3332 18.9722 32.4515 19.1456 32.5215 19.3533C32.5904 19.5622 32.6248 19.7778 32.6248 20C32.6248 20.2222 32.5904 20.4306 32.5215 20.625C32.4515 20.8194 32.3332 21 32.1665 21.1667L21.1665 32.1667C20.8609 32.4722 20.4721 32.625 19.9998 32.625C19.5276 32.625 19.1387 32.4722 18.8332 32.1667V32.1667Z" fill="#FF731D"/>
</svg>
