<svg width="40" height="40" viewBox="0 0 40 40" fill="none" xmlns="http://www.w3.org/2000/svg">
<path d="M21.1668 7.83333C21.4724 8.13889 21.6324 8.52777 21.6468 9C21.6602 9.47222 21.5141 9.86111 21.2085 10.1667L13.0418 18.3333H31.6668C32.1391 18.3333 32.5352 18.4933 32.8552 18.8133C33.1741 19.1322 33.3335 19.5278 33.3335 20C33.3335 20.4722 33.1741 20.8683 32.8552 21.1883C32.5352 21.5072 32.1391 21.6667 31.6668 21.6667H13.0418L21.2085 29.8333C21.5141 30.1389 21.6602 30.5278 21.6468 31C21.6324 31.4722 21.4724 31.8611 21.1668 32.1667C20.8613 32.4722 20.4724 32.625 20.0002 32.625C19.5279 32.625 19.1391 32.4722 18.8335 32.1667L7.8335 21.1667C7.66683 21.0278 7.5485 20.8544 7.4785 20.6467C7.40961 20.4378 7.37516 20.2222 7.37516 20C7.37516 19.7778 7.40961 19.5694 7.4785 19.375C7.5485 19.1806 7.66683 19 7.8335 18.8333L18.8335 7.83333C19.1391 7.52778 19.5279 7.375 20.0002 7.375C20.4724 7.375 20.8613 7.52778 21.1668 7.83333V7.83333Z" fill="#C6C6C6"/>
</svg>
