<svg width="34" height="32" viewBox="0 0 34 32" fill="none" xmlns="http://www.w3.org/2000/svg">
<path d="M16.9475 2.66663C9.25658 2.66663 2.99951 8.64796 2.99951 16V21.524C2.99951 22.8893 4.25065 24 5.78911 24H7.18391C7.55383 24 7.9086 23.8595 8.17018 23.6094C8.43176 23.3594 8.57871 23.0202 8.57871 22.6666V15.8093C8.57871 15.4557 8.43176 15.1165 8.17018 14.8665C7.9086 14.6164 7.55383 14.476 7.18391 14.476H5.91743C6.69294 9.31596 11.3376 5.33329 16.9475 5.33329C22.5574 5.33329 27.2021 9.31596 27.9776 14.476H26.7111C26.3412 14.476 25.9864 14.6164 25.7248 14.8665C25.4632 15.1165 25.3163 15.4557 25.3163 15.8093V24C25.3163 25.4706 24.0652 26.6666 22.5267 26.6666H19.7371V25.3333H14.1579V29.3333H22.5267C25.6036 29.3333 28.1059 26.9413 28.1059 24C29.6444 24 30.8955 22.8893 30.8955 21.524V16C30.8955 8.64796 24.6384 2.66663 16.9475 2.66663Z" fill="#095896"/>
</svg>
