<svg width="32" height="31" viewBox="0 0 32 31" fill="none" xmlns="http://www.w3.org/2000/svg">
<path d="M15.948 28.6667C23.6513 28.6667 29.896 22.6971 29.896 15.3333C29.896 7.96954 23.6513 2 15.948 2C8.24473 2 2 7.96954 2 15.3333C2 22.6971 8.24473 28.6667 15.948 28.6667Z" stroke="#095896" stroke-width="3" stroke-linecap="round"/>
<path d="M10.3689 11.4001V11.2667M21.5273 11.4001V11.2667" stroke="#095896" stroke-width="3" stroke-linecap="round"/>
<path d="M15.9481 23.3333C17.4278 23.3333 18.8469 22.7714 19.8932 21.7712C20.9395 20.771 21.5273 19.4145 21.5273 18H10.3689C10.3689 19.4145 10.9567 20.771 12.003 21.7712C13.0493 22.7714 14.4684 23.3333 15.9481 23.3333Z" stroke="#095896" stroke-width="3" stroke-linecap="round" stroke-linejoin="round"/>
</svg>
