<svg width="16" height="16" viewBox="0 0 16 16" fill="none" xmlns="http://www.w3.org/2000/svg">
<path d="M3.99992 3.334C3.99974 3.68762 3.8591 4.02669 3.60892 4.27661C3.35875 4.52654 3.01954 4.66684 2.66592 4.66667C2.3123 4.66649 1.97323 4.52584 1.7233 4.27567C1.47338 4.0255 1.33308 3.68629 1.33325 3.33267C1.33343 2.97904 1.47407 2.63998 1.72425 2.39005C1.97442 2.14013 2.31363 1.99982 2.66725 2C3.02087 2.00018 3.35994 2.14082 3.60987 2.391C3.85979 2.64117 4.0001 2.98038 3.99992 3.334V3.334ZM4.03992 5.654H1.37325V14.0007H4.03992V5.654ZM8.25325 5.654H5.59992V14.0007H8.22658V9.62067C8.22658 7.18067 11.4066 6.954 11.4066 9.62067V14.0007H14.0399V8.714C14.0399 4.60067 9.33325 4.754 8.22658 6.774L8.25325 5.654V5.654Z" fill="#095896"/>
</svg>
