<svg width="34" height="32" viewBox="0 0 34 32" fill="none" xmlns="http://www.w3.org/2000/svg">
<path fill-rule="evenodd" clip-rule="evenodd" d="M12.5533 2C11.5822 2 10.651 2.36875 9.96431 3.02513C9.27768 3.6815 8.89193 4.57174 8.89193 5.5V8H6.27668C5.16691 8 4.10259 8.42143 3.31787 9.17157C2.53314 9.92172 2.09229 10.9391 2.09229 12V26C2.09229 27.0609 2.53314 28.0783 3.31787 28.8284C4.10259 29.5786 5.16691 30 6.27668 30H27.1987C28.3084 30 29.3728 29.5786 30.1575 28.8284C30.9422 28.0783 31.3831 27.0609 31.3831 26V12C31.3831 10.9391 30.9422 9.92172 30.1575 9.17157C29.3728 8.42143 28.3084 8 27.1987 8H24.5834V5.5C24.5834 4.57174 24.1977 3.6815 23.511 3.02513C22.8244 2.36875 21.8931 2 20.9221 2H12.5533ZM21.4451 8V5.5C21.4451 5.36739 21.39 5.24021 21.2919 5.14645C21.1938 5.05268 21.0608 5 20.9221 5H12.5533C12.4146 5 12.2815 5.05268 12.1834 5.14645C12.0853 5.24021 12.0302 5.36739 12.0302 5.5V8H21.4451ZM6.27668 11H27.1987C27.4761 11 27.7422 11.1054 27.9384 11.2929C28.1346 11.4804 28.2448 11.7348 28.2448 12V14H5.23058V12C5.23058 11.7348 5.3408 11.4804 5.53698 11.2929C5.73316 11.1054 5.99924 11 6.27668 11ZM5.23058 17V26C5.23058 26.2652 5.3408 26.5196 5.53698 26.7071C5.73316 26.8946 5.99924 27 6.27668 27H27.1987C27.4761 27 27.7422 26.8946 27.9384 26.7071C28.1346 26.5196 28.2448 26.2652 28.2448 26V17H18.8299V20H14.6455V17H5.23058Z" fill="#095896"/>
</svg>
