<svg width="24" height="24" viewBox="0 0 24 24" fill="none" xmlns="http://www.w3.org/2000/svg">
<path d="M6 5.00097C5.99974 5.5314 5.78877 6.04001 5.41351 6.41489C5.03825 6.78978 4.52943 7.00024 3.999 6.99997C3.46857 6.9997 2.95996 6.78874 2.58508 6.41348C2.21019 6.03822 1.99974 5.5294 2 4.99897C2.00027 4.46854 2.21123 3.95993 2.58649 3.58505C2.96175 3.21016 3.47057 2.9997 4.001 2.99997C4.53143 3.00023 5.04004 3.2112 5.41492 3.58646C5.78981 3.96172 6.00027 4.47054 6 5.00097V5.00097ZM6.06 8.48097H2.06V21.001H6.06V8.48097ZM12.38 8.48097H8.4V21.001H12.34V14.431C12.34 10.771 17.11 10.431 17.11 14.431V21.001H21.06V13.071C21.06 6.90097 14 7.13097 12.34 10.161L12.38 8.48097V8.48097Z" fill="#095896"/>
</svg>
