<svg width="39" height="48" viewBox="0 0 39 48" fill="none" xmlns="http://www.w3.org/2000/svg">
<path d="M19.3333 24.1667C20.6625 24.1667 21.8007 23.693 22.7481 22.7457C23.6938 21.7999 24.1667 20.6625 24.1667 19.3333C24.1667 18.0042 23.6938 16.8659 22.7481 15.9186C21.8007 14.9729 20.6625 14.5 19.3333 14.5C18.0042 14.5 16.8667 14.9729 15.921 15.9186C14.9737 16.8659 14.5 18.0042 14.5 19.3333C14.5 20.6625 14.9737 21.7999 15.921 22.7457C16.8667 23.693 18.0042 24.1667 19.3333 24.1667ZM19.3333 47.4271C19.0111 47.4271 18.6889 47.3667 18.3667 47.2458C18.0444 47.125 17.7625 46.9639 17.5208 46.7625C11.6403 41.5667 7.25 36.7438 4.35 32.2939C1.45 27.8424 0 23.6833 0 19.8167C0 13.775 1.94381 8.9618 5.83142 5.37708C9.71742 1.79236 14.2181 0 19.3333 0C24.4486 0 28.9492 1.79236 32.8352 5.37708C36.7229 8.9618 38.6667 13.775 38.6667 19.8167C38.6667 23.6833 37.2167 27.8424 34.3167 32.2939C31.4167 36.7438 27.0264 41.5667 21.1458 46.7625C20.9042 46.9639 20.6222 47.125 20.3 47.2458C19.9778 47.3667 19.6556 47.4271 19.3333 47.4271Z" fill="#FF731D"/>
</svg>
