<svg width="28" height="28" viewBox="0 0 28 28" fill="none" xmlns="http://www.w3.org/2000/svg">
<path d="M23.7116 3.33341H20.922V2.00008C20.922 1.64646 20.775 1.30732 20.5135 1.05727C20.2519 0.807224 19.8971 0.666748 19.5272 0.666748C19.1573 0.666748 18.8025 0.807224 18.5409 1.05727C18.2793 1.30732 18.1324 1.64646 18.1324 2.00008V3.33341H9.76359V2.00008C9.76359 1.64646 9.61664 1.30732 9.35507 1.05727C9.09349 0.807224 8.73872 0.666748 8.36879 0.666748C7.99887 0.666748 7.6441 0.807224 7.38252 1.05727C7.12095 1.30732 6.97399 1.64646 6.97399 2.00008V3.33341H4.1844C3.07463 3.33341 2.01031 3.75484 1.22558 4.50499C0.440855 5.25513 0 6.27255 0 7.33341V23.3334C0 24.3943 0.440855 25.4117 1.22558 26.1618C2.01031 26.912 3.07463 27.3334 4.1844 27.3334H23.7116C24.8214 27.3334 25.8857 26.912 26.6704 26.1618C27.4551 25.4117 27.896 24.3943 27.896 23.3334V7.33341C27.896 6.27255 27.4551 5.25513 26.6704 4.50499C25.8857 3.75484 24.8214 3.33341 23.7116 3.33341V3.33341ZM25.1064 23.3334C25.1064 23.687 24.9594 24.0262 24.6979 24.2762C24.4363 24.5263 24.0815 24.6667 23.7116 24.6667H4.1844C3.81447 24.6667 3.4597 24.5263 3.19813 24.2762C2.93655 24.0262 2.7896 23.687 2.7896 23.3334V14.0001H25.1064V23.3334ZM25.1064 11.3334H2.7896V7.33341C2.7896 6.97979 2.93655 6.64065 3.19813 6.39061C3.4597 6.14056 3.81447 6.00008 4.1844 6.00008H6.97399V7.33341C6.97399 7.68704 7.12095 8.02617 7.38252 8.27622C7.6441 8.52627 7.99887 8.66675 8.36879 8.66675C8.73872 8.66675 9.09349 8.52627 9.35507 8.27622C9.61664 8.02617 9.76359 7.68704 9.76359 7.33341V6.00008H18.1324V7.33341C18.1324 7.68704 18.2793 8.02617 18.5409 8.27622C18.8025 8.52627 19.1573 8.66675 19.5272 8.66675C19.8971 8.66675 20.2519 8.52627 20.5135 8.27622C20.775 8.02617 20.922 7.68704 20.922 7.33341V6.00008H23.7116C24.0815 6.00008 24.4363 6.14056 24.6979 6.39061C24.9594 6.64065 25.1064 6.97979 25.1064 7.33341V11.3334Z" fill="#095896"/>
</svg>
