<svg width="28" height="27" viewBox="0 0 28 27" fill="none" xmlns="http://www.w3.org/2000/svg">
<path d="M13.948 0C6.25707 0 0 5.98133 0 13.3333V18.8573C0 20.2227 1.25113 21.3333 2.7896 21.3333H4.1844C4.55432 21.3333 4.90909 21.1929 5.17067 20.9428C5.43224 20.6928 5.5792 20.3536 5.5792 20V13.1427C5.5792 12.789 5.43224 12.4499 5.17067 12.1999C4.90909 11.9498 4.55432 11.8093 4.1844 11.8093H2.91792C3.69343 6.64933 8.33811 2.66667 13.948 2.66667C19.5579 2.66667 24.2026 6.64933 24.9781 11.8093H23.7116C23.3417 11.8093 22.9869 11.9498 22.7253 12.1999C22.4637 12.4499 22.3168 12.789 22.3168 13.1427V21.3333C22.3168 22.804 21.0656 24 19.5272 24H16.7376V22.6667H11.1584V26.6667H19.5272C22.6041 26.6667 25.1064 24.2747 25.1064 21.3333C26.6448 21.3333 27.896 20.2227 27.896 18.8573V13.3333C27.896 5.98133 21.6389 0 13.948 0Z" fill="#095896"/>
</svg>
