<svg width="30" height="28" viewBox="0 0 30 28" fill="none" xmlns="http://www.w3.org/2000/svg">
<path fill-rule="evenodd" clip-rule="evenodd" d="M10.7628 0C9.7917 0 8.86042 0.368749 8.17379 1.02513C7.48715 1.6815 7.1014 2.57174 7.1014 3.5V6H4.48616C3.37638 6 2.31207 6.42143 1.52734 7.17157C0.742613 7.92172 0.301758 8.93913 0.301758 10V24C0.301758 25.0609 0.742613 26.0783 1.52734 26.8284C2.31207 27.5786 3.37638 28 4.48616 28H25.4081C26.5179 28 27.5822 27.5786 28.367 26.8284C29.1517 26.0783 29.5925 25.0609 29.5925 24V10C29.5925 8.93913 29.1517 7.92172 28.367 7.17157C27.5822 6.42143 26.5179 6 25.4081 6H22.7929V3.5C22.7929 2.57174 22.4071 1.6815 21.7205 1.02513C21.0339 0.368749 20.1026 0 19.1315 0H10.7628ZM19.6546 6V3.5C19.6546 3.36739 19.5995 3.24021 19.5014 3.14645C19.4033 3.05268 19.2703 3 19.1315 3H10.7628C10.624 3 10.491 3.05268 10.3929 3.14645C10.2948 3.24021 10.2397 3.36739 10.2397 3.5V6H19.6546ZM4.48616 9H25.4081C25.6856 9 25.9517 9.10536 26.1478 9.29289C26.344 9.48043 26.4542 9.73478 26.4542 10V12H3.44006V10C3.44006 9.73478 3.55027 9.48043 3.74645 9.29289C3.94263 9.10536 4.20871 9 4.48616 9ZM3.44006 15V24C3.44006 24.2652 3.55027 24.5196 3.74645 24.7071C3.94263 24.8946 4.20871 25 4.48616 25H25.4081C25.6856 25 25.9517 24.8946 26.1478 24.7071C26.344 24.5196 26.4542 24.2652 26.4542 24V15H17.0393V18H12.8549V15H3.44006Z" fill="#095896"/>
</svg>
