<svg width="28" height="27" viewBox="0 0 28 27" fill="none" xmlns="http://www.w3.org/2000/svg">
<path d="M23.7116 2.66667H20.922V1.33333C20.922 0.979711 20.775 0.640573 20.5135 0.390524C20.2519 0.140476 19.8971 0 19.5272 0C19.1573 0 18.8025 0.140476 18.5409 0.390524C18.2793 0.640573 18.1324 0.979711 18.1324 1.33333V2.66667H9.76359V1.33333C9.76359 0.979711 9.61664 0.640573 9.35507 0.390524C9.09349 0.140476 8.73872 0 8.36879 0C7.99887 0 7.6441 0.140476 7.38252 0.390524C7.12095 0.640573 6.97399 0.979711 6.97399 1.33333V2.66667H4.1844C3.07463 2.66667 2.01031 3.08809 1.22558 3.83824C0.440855 4.58838 0 5.6058 0 6.66667V22.6667C0 23.7275 0.440855 24.7449 1.22558 25.4951C2.01031 26.2452 3.07463 26.6667 4.1844 26.6667H23.7116C24.8214 26.6667 25.8857 26.2452 26.6704 25.4951C27.4551 24.7449 27.896 23.7275 27.896 22.6667V6.66667C27.896 5.6058 27.4551 4.58838 26.6704 3.83824C25.8857 3.08809 24.8214 2.66667 23.7116 2.66667V2.66667ZM25.1064 22.6667C25.1064 23.0203 24.9594 23.3594 24.6979 23.6095C24.4363 23.8595 24.0815 24 23.7116 24H4.1844C3.81447 24 3.4597 23.8595 3.19813 23.6095C2.93655 23.3594 2.7896 23.0203 2.7896 22.6667V13.3333H25.1064V22.6667ZM25.1064 10.6667H2.7896V6.66667C2.7896 6.31304 2.93655 5.97391 3.19813 5.72386C3.4597 5.47381 3.81447 5.33333 4.1844 5.33333H6.97399V6.66667C6.97399 7.02029 7.12095 7.35943 7.38252 7.60948C7.6441 7.85952 7.99887 8 8.36879 8C8.73872 8 9.09349 7.85952 9.35507 7.60948C9.61664 7.35943 9.76359 7.02029 9.76359 6.66667V5.33333H18.1324V6.66667C18.1324 7.02029 18.2793 7.35943 18.5409 7.60948C18.8025 7.85952 19.1573 8 19.5272 8C19.8971 8 20.2519 7.85952 20.5135 7.60948C20.775 7.35943 20.922 7.02029 20.922 6.66667V5.33333H23.7116C24.0815 5.33333 24.4363 5.47381 24.6979 5.72386C24.9594 5.97391 25.1064 6.31304 25.1064 6.66667V10.6667Z" fill="#095896"/>
</svg>
