<svg width="153" height="36" viewBox="0 0 153 36" fill="none" xmlns="http://www.w3.org/2000/svg">
<path d="M67.1392 28L63.1326 20.5593H62.5316V28H56.9224V7.82414H65.7655C67.3872 7.82414 68.7609 8.11033 69.8865 8.68269C71.0122 9.23598 71.8612 10.0087 72.4335 11.0008C73.0059 11.9738 73.2921 13.0708 73.2921 14.2919C73.2921 15.6655 72.9105 16.877 72.1473 17.9264C71.4033 18.9566 70.3062 19.6912 68.8562 20.13L73.4065 28H67.1392ZM62.5316 16.7244H65.3076C66.0707 16.7244 66.6431 16.5432 67.0247 16.1807C67.4063 15.8182 67.597 15.2935 67.597 14.6067C67.597 13.958 67.3967 13.4524 66.9961 13.0899C66.6145 12.7083 66.0517 12.5175 65.3076 12.5175H62.5316V16.7244ZM78.6761 10.457C77.684 10.457 76.8827 10.1899 76.2722 9.65571C75.6807 9.10243 75.385 8.41559 75.385 7.5952C75.385 6.75573 75.6807 6.05935 76.2722 5.50607C76.8827 4.95278 77.684 4.67614 78.6761 4.67614C79.6491 4.67614 80.4314 4.95278 81.0228 5.50607C81.6333 6.05935 81.9386 6.75573 81.9386 7.5952C81.9386 8.41559 81.6333 9.10243 81.0228 9.65571C80.4314 10.1899 79.6491 10.457 78.6761 10.457ZM81.4521 11.9452V28H75.8429V11.9452H81.4521ZM95.1493 11.8021C96.9999 11.8021 98.469 12.4221 99.5565 13.6623C100.644 14.8833 101.188 16.5432 101.188 18.6418V28H95.5785V19.3859C95.5785 18.4701 95.34 17.7547 94.8631 17.2395C94.3861 16.7053 93.747 16.4382 92.9456 16.4382C92.1062 16.4382 91.448 16.7053 90.971 17.2395C90.494 17.7547 90.2555 18.4701 90.2555 19.3859V28H84.6464V11.9452H90.2555V14.2346C90.7516 13.5096 91.4193 12.9277 92.2588 12.4889C93.0983 12.031 94.0618 11.8021 95.1493 11.8021ZM110.189 11.7448C111.277 11.7448 112.221 11.9642 113.023 12.4031C113.843 12.8419 114.473 13.4333 114.911 14.1774V11.9452H120.521V27.8283C120.521 29.3355 120.234 30.6901 119.662 31.8921C119.09 33.1131 118.193 34.0861 116.972 34.8111C115.77 35.5361 114.244 35.8986 112.393 35.8986C109.913 35.8986 107.929 35.3167 106.44 34.1529C104.952 32.9891 104.103 31.4056 103.893 29.4023H109.417C109.531 29.9174 109.817 30.3181 110.275 30.6043C110.733 30.8904 111.325 31.0335 112.05 31.0335C113.958 31.0335 114.911 29.9651 114.911 27.8283V25.7678C114.473 26.5119 113.843 27.1033 113.023 27.5421C112.221 27.9809 111.277 28.2003 110.189 28.2003C108.911 28.2003 107.747 27.8664 106.698 27.1987C105.668 26.5309 104.847 25.577 104.237 24.3369C103.645 23.0777 103.35 21.6181 103.35 19.9583C103.35 18.2984 103.645 16.8484 104.237 15.6083C104.847 14.3682 105.668 13.4142 106.698 12.7465C107.747 12.0787 108.911 11.7448 110.189 11.7448ZM114.911 19.9583C114.911 18.928 114.625 18.1172 114.053 17.5257C113.5 16.9343 112.813 16.6386 111.992 16.6386C111.153 16.6386 110.457 16.9343 109.903 17.5257C109.35 18.0981 109.073 18.9089 109.073 19.9583C109.073 20.9885 109.35 21.8089 109.903 22.4194C110.457 23.0109 111.153 23.3066 111.992 23.3066C112.813 23.3066 113.5 23.0109 114.053 22.4194C114.625 21.828 114.911 21.0076 114.911 19.9583ZM131.39 28H128.826L125.411 22.8454V28H122.847V18.7768H125.411L128.826 23.9967V18.7768H131.39V28ZM139.863 24.2453C139.863 24.4459 139.85 24.6465 139.824 24.8471H134.97C134.996 25.2483 135.105 25.5492 135.297 25.7498C135.498 25.9417 135.751 26.0376 136.056 26.0376C136.483 26.0376 136.788 25.8457 136.972 25.462H139.706C139.592 25.9678 139.37 26.4214 139.039 26.8226C138.716 27.215 138.306 27.5247 137.809 27.7514C137.312 27.9782 136.762 28.0916 136.16 28.0916C135.437 28.0916 134.791 27.9389 134.224 27.6337C133.666 27.3284 133.226 26.8923 132.903 26.3254C132.589 25.7585 132.432 25.0913 132.432 24.3238C132.432 23.5563 132.589 22.8934 132.903 22.3352C133.217 21.7683 133.653 21.3322 134.211 21.027C134.778 20.7217 135.428 20.5691 136.16 20.5691C136.884 20.5691 137.525 20.7173 138.084 21.0139C138.642 21.3104 139.078 21.7378 139.392 22.296C139.706 22.8454 139.863 23.4952 139.863 24.2453ZM137.246 23.6042C137.246 23.2903 137.142 23.046 136.932 22.8716C136.723 22.6885 136.461 22.5969 136.147 22.5969C135.833 22.5969 135.576 22.6841 135.376 22.8585C135.175 23.0242 135.044 23.2728 134.983 23.6042H137.246ZM145.243 25.8152V28H144.131C142.255 28 141.318 27.0711 141.318 25.2134V22.7931H140.415V20.6606H141.318V18.8814H143.895V20.6606H145.229V22.7931H143.895V25.2526C143.895 25.4532 143.939 25.5972 144.026 25.6844C144.122 25.7716 144.279 25.8152 144.497 25.8152H145.243Z" fill="#5D6B99"/>
<path d="M67.1392 28L66.7792 28.1938L66.895 28.4088H67.1392V28ZM63.1326 20.5593L63.4926 20.3654L63.3768 20.1504H63.1326V20.5593ZM62.5316 20.5593V20.1504H62.1228V20.5593H62.5316ZM62.5316 28V28.4088H62.9405V28H62.5316ZM56.9224 28H56.5136V28.4088H56.9224V28ZM56.9224 7.82414V7.41531H56.5136V7.82414H56.9224ZM69.8865 8.68269L69.7012 9.04715L69.7062 9.0496L69.8865 8.68269ZM72.4335 11.0008L72.0794 11.2051L72.0811 11.2081L72.4335 11.0008ZM72.1473 17.9264L71.8167 17.6859L71.8159 17.687L72.1473 17.9264ZM68.8562 20.13L68.7378 19.7387L68.2441 19.8881L68.5023 20.3346L68.8562 20.13ZM73.4065 28V28.4088H74.1152L73.7605 27.7954L73.4065 28ZM62.5316 16.7244H62.1228V17.1332H62.5316V16.7244ZM67.0247 16.1807L66.7431 15.8843L66.7431 15.8843L67.0247 16.1807ZM66.9961 13.0899L66.707 13.379L66.7142 13.3862L66.7218 13.3931L66.9961 13.0899ZM62.5316 12.5175V12.1087H62.1228V12.5175H62.5316ZM67.4991 27.8062L63.4926 20.3654L62.7726 20.7531L66.7792 28.1938L67.4991 27.8062ZM63.1326 20.1504H62.5316V20.9681H63.1326V20.1504ZM62.1228 20.5593V28H62.9405V20.5593H62.1228ZM62.5316 27.5912H56.9224V28.4088H62.5316V27.5912ZM57.3313 28V7.82414H56.5136V28H57.3313ZM56.9224 8.23298H65.7655V7.41531H56.9224V8.23298ZM65.7655 8.23298C67.3405 8.23298 68.6469 8.51104 69.7012 9.04712L70.0718 8.31826C68.8748 7.70961 67.4338 7.41531 65.7655 7.41531V8.23298ZM69.7062 9.0496C70.7663 9.57066 71.5514 10.2899 72.0794 11.2051L72.7877 10.7965C72.1709 9.72747 71.258 8.90129 70.0668 8.31579L69.7062 9.0496ZM72.0811 11.2081C72.6136 12.1131 72.8832 13.1376 72.8832 14.2919H73.7009C73.7009 13.0041 73.3982 11.8344 72.7859 10.7935L72.0811 11.2081ZM72.8832 14.2919C72.8832 15.5845 72.526 16.7107 71.8167 17.6859L72.478 18.1668C73.295 17.0434 73.7009 15.7466 73.7009 14.2919H72.8832ZM71.8159 17.687C71.1338 18.6315 70.1191 19.3207 68.7378 19.7387L68.9747 20.5213C70.4934 20.0617 71.6727 19.2818 72.4788 18.1657L71.8159 17.687ZM68.5023 20.3346L73.0526 28.2046L73.7605 27.7954L69.2102 19.9253L68.5023 20.3346ZM73.4065 27.5912H67.1392V28.4088H73.4065V27.5912ZM62.5316 17.1332H65.3076V16.3156H62.5316V17.1332ZM65.3076 17.1332C66.1287 17.1332 66.8204 16.9386 67.3063 16.4771L66.7431 15.8843C66.4658 16.1477 66.0128 16.3156 65.3076 16.3156V17.1332ZM67.3063 16.4771C67.7919 16.0157 68.0059 15.3697 68.0059 14.6067H67.1882C67.1882 15.2173 67.0206 15.6206 66.7431 15.8843L67.3063 16.4771ZM68.0059 14.6067C68.0059 13.8677 67.7737 13.2422 67.2704 12.7867L66.7218 13.3931C67.0197 13.6626 67.1882 14.0483 67.1882 14.6067H68.0059ZM67.2852 12.8008C66.8016 12.3173 66.1182 12.1087 65.3076 12.1087V12.9264C65.9852 12.9264 66.4273 13.0994 66.707 13.379L67.2852 12.8008ZM65.3076 12.1087H62.5316V12.9264H65.3076V12.1087ZM62.1228 12.5175V16.7244H62.9405V12.5175H62.1228ZM76.2722 9.65571L75.9927 9.95443L76.003 9.96339L76.2722 9.65571ZM76.2722 5.50607L75.9976 5.20309L75.9929 5.20751L76.2722 5.50607ZM81.0228 5.50607L80.7435 5.80466L80.7483 5.80901L81.0228 5.50607ZM81.0228 9.65571L81.2968 9.95911L81.2973 9.95865L81.0228 9.65571ZM81.4521 11.9452H81.8609V11.5363H81.4521V11.9452ZM81.4521 28V28.4088H81.8609V28H81.4521ZM75.8429 28H75.4341V28.4088H75.8429V28ZM75.8429 11.9452V11.5363H75.4341V11.9452H75.8429ZM78.6761 10.0482C77.76 10.0482 77.0617 9.80331 76.5414 9.34803L76.003 9.96339C76.7037 10.5765 77.608 10.8659 78.6761 10.8659V10.0482ZM76.5515 9.35715C76.0439 8.8823 75.7938 8.30409 75.7938 7.5952H74.9762C74.9762 8.52708 75.3176 9.32255 75.9929 9.95427L76.5515 9.35715ZM75.7938 7.5952C75.7938 6.86422 76.046 6.27748 76.5515 5.80463L75.9929 5.20751C75.3155 5.84123 74.9762 6.64724 74.9762 7.5952H75.7938ZM76.5467 5.80901C77.0673 5.33722 77.7637 5.08497 78.6761 5.08497V4.26731C77.6043 4.26731 76.6981 4.56834 75.9976 5.20313L76.5467 5.80901ZM78.6761 5.08497C79.5675 5.08497 80.2425 5.33599 80.7435 5.80463L81.3021 5.20751C80.6202 4.56958 79.7307 4.26731 78.6761 4.26731V5.08497ZM80.7483 5.80901C81.2714 6.28314 81.5298 6.86866 81.5298 7.5952H82.3474C82.3474 6.6428 81.9952 5.83556 81.2973 5.20313L80.7483 5.80901ZM81.5298 7.5952C81.5298 8.29961 81.2737 8.8766 80.7483 9.35277L81.2973 9.95865C81.993 9.32825 82.3474 8.53156 82.3474 7.5952H81.5298ZM80.7488 9.35232C80.2482 9.80443 79.5713 10.0482 78.6761 10.0482V10.8659C79.7269 10.8659 80.6145 10.5754 81.2968 9.95911L80.7488 9.35232ZM81.0432 11.9452V28H81.8609V11.9452H81.0432ZM81.4521 27.5912H75.8429V28.4088H81.4521V27.5912ZM76.2517 28V11.9452H75.4341V28H76.2517ZM75.8429 12.354H81.4521V11.5363H75.8429V12.354ZM99.5565 13.6623L99.2491 13.9318L99.2512 13.9342L99.5565 13.6623ZM101.188 28V28.4088H101.597V28H101.188ZM95.5785 28H95.1697V28.4088H95.5785V28ZM94.8631 17.2395L94.5581 17.5119L94.5631 17.5173L94.8631 17.2395ZM90.971 17.2395L91.271 17.5174L91.276 17.5118L90.971 17.2395ZM90.2555 28V28.4088H90.6644V28H90.2555ZM84.6464 28H84.2375V28.4088H84.6464V28ZM84.6464 11.9452V11.5363H84.2375V11.9452H84.6464ZM90.2555 11.9452H90.6644V11.5363H90.2555V11.9452ZM90.2555 14.2346H89.8467V15.5562L90.5929 14.4655L90.2555 14.2346ZM92.2588 12.4889L92.4482 12.8513L92.4546 12.8478L92.2588 12.4889ZM95.1493 12.2109C96.8982 12.2109 98.2492 12.7916 99.2491 13.9318L99.8638 13.3927C98.6887 12.0527 97.1016 11.3932 95.1493 11.3932V12.2109ZM99.2512 13.9342C100.255 15.0611 100.779 16.6142 100.779 18.6418H101.597C101.597 16.4722 101.033 14.7056 99.8618 13.3904L99.2512 13.9342ZM100.779 18.6418V28H101.597V18.6418H100.779ZM101.188 27.5912H95.5785V28.4088H101.188V27.5912ZM95.9874 28V19.3859H95.1697V28H95.9874ZM95.9874 19.3859C95.9874 18.3994 95.7292 17.5732 95.1631 16.9618L94.5631 17.5173C94.9509 17.9361 95.1697 18.5409 95.1697 19.3859H95.9874ZM95.168 16.9673C94.6038 16.3353 93.848 16.0294 92.9456 16.0294V16.8471C93.6459 16.8471 94.1684 17.0754 94.5581 17.5118L95.168 16.9673ZM92.9456 16.0294C92.0117 16.0294 91.2341 16.331 90.666 16.9673L91.276 17.5118C91.6618 17.0797 92.2006 16.8471 92.9456 16.8471V16.0294ZM90.671 16.9618C90.1049 17.5732 89.8467 18.3994 89.8467 19.3859H90.6644C90.6644 18.5409 90.8832 17.9361 91.271 17.5173L90.671 16.9618ZM89.8467 19.3859V28H90.6644V19.3859H89.8467ZM90.2555 27.5912H84.6464V28.4088H90.2555V27.5912ZM85.0552 28V11.9452H84.2375V28H85.0552ZM84.6464 12.354H90.2555V11.5363H84.6464V12.354ZM89.8467 11.9452V14.2346H90.6644V11.9452H89.8467ZM90.5929 14.4655C91.0482 13.8001 91.6633 13.2615 92.4482 12.8512L92.0694 12.1266C91.1754 12.5939 90.4549 13.2192 89.9181 14.0038L90.5929 14.4655ZM92.4546 12.8478C93.2262 12.427 94.1207 12.2109 95.1493 12.2109V11.3932C94.0029 11.3932 92.9704 11.6351 92.063 12.13L92.4546 12.8478ZM113.023 12.4031L112.826 12.7617L112.83 12.7636L113.023 12.4031ZM114.911 14.1774L114.559 14.3851L115.32 15.6754V14.1774H114.911ZM114.911 11.9452V11.5363H114.503V11.9452H114.911ZM120.521 11.9452H120.929V11.5363H120.521V11.9452ZM119.662 31.8921L119.293 31.7163L119.292 31.7186L119.662 31.8921ZM116.972 34.8111L116.763 34.4596L116.761 34.4611L116.972 34.8111ZM106.44 34.1529L106.692 33.8309L106.692 33.8309L106.44 34.1529ZM103.893 29.4023V28.9935H103.44L103.487 29.4449L103.893 29.4023ZM109.417 29.4023L109.816 29.3136L109.745 28.9935H109.417V29.4023ZM110.275 30.6043L110.059 30.9509L110.059 30.9509L110.275 30.6043ZM114.911 25.7678H115.32V24.2697L114.559 25.5601L114.911 25.7678ZM113.023 27.5421L112.83 27.1816L112.826 27.1835L113.023 27.5421ZM106.698 27.1987L106.476 27.5418L106.479 27.5436L106.698 27.1987ZM104.237 24.3369L103.867 24.5107L103.87 24.5174L104.237 24.3369ZM104.237 15.6083L103.87 15.4277L103.868 15.4323L104.237 15.6083ZM106.698 12.7465L106.479 12.4016L106.476 12.4034L106.698 12.7465ZM114.053 17.5257L113.754 17.8051L113.759 17.81L114.053 17.5257ZM109.903 17.5257L110.197 17.8099L110.202 17.805L109.903 17.5257ZM109.903 22.4194L109.6 22.694L109.605 22.6987L109.903 22.4194ZM114.053 22.4194L113.759 22.1351L113.754 22.1401L114.053 22.4194ZM110.189 12.1537C111.221 12.1537 112.096 12.3615 112.826 12.7616L113.219 12.0445C112.347 11.5669 111.333 11.336 110.189 11.336V12.1537ZM112.83 12.7636C113.589 13.1698 114.162 13.7106 114.559 14.3851L115.264 13.9697C114.784 13.1561 114.097 12.5139 113.216 12.0426L112.83 12.7636ZM115.32 14.1774V11.9452H114.503V14.1774H115.32ZM114.911 12.354H120.521V11.5363H114.911V12.354ZM120.112 11.9452V27.8283H120.929V11.9452H120.112ZM120.112 27.8283C120.112 29.2828 119.836 30.5761 119.293 31.7163L120.031 32.0679C120.633 30.8041 120.929 29.3883 120.929 27.8283H120.112ZM119.292 31.7186C118.756 32.8614 117.918 33.7741 116.763 34.4596L117.181 35.1627C118.468 34.3982 119.423 33.3649 120.032 32.0656L119.292 31.7186ZM116.761 34.4611C115.64 35.1372 114.192 35.4898 112.393 35.4898V36.3075C114.295 36.3075 115.9 35.935 117.183 35.1612L116.761 34.4611ZM112.393 35.4898C109.975 35.4898 108.089 34.923 106.692 33.8309L106.189 34.475C107.768 35.7104 109.85 36.3075 112.393 36.3075V35.4898ZM106.692 33.8309C105.298 32.7403 104.499 31.2608 104.3 29.3597L103.487 29.4449C103.707 31.5503 104.607 33.238 106.189 34.475L106.692 33.8309ZM103.893 29.8111H109.417V28.9935H103.893V29.8111ZM109.018 29.491C109.157 30.1158 109.51 30.6082 110.059 30.9509L110.492 30.2576C110.125 30.0279 109.906 29.719 109.816 29.3136L109.018 29.491ZM110.059 30.9509C110.6 31.2894 111.274 31.4424 112.05 31.4424V30.6247C111.376 30.6247 110.866 30.4915 110.492 30.2576L110.059 30.9509ZM112.05 31.4424C113.079 31.4424 113.923 31.1519 114.501 30.5045C115.071 29.8659 115.32 28.949 115.32 27.8283H114.503C114.503 28.8444 114.275 29.5301 113.891 29.9599C113.515 30.3809 112.928 30.6247 112.05 30.6247V31.4424ZM115.32 27.8283V25.7678H114.503V27.8283H115.32ZM114.559 25.5601C114.162 26.2346 113.589 26.7753 112.83 27.1816L113.216 27.9026C114.097 27.4313 114.784 26.7891 115.264 25.9755L114.559 25.5601ZM112.826 27.1835C112.096 27.5836 111.221 27.7915 110.189 27.7915V28.6092C111.333 28.6092 112.347 28.3782 113.219 27.9007L112.826 27.1835ZM110.189 27.7915C108.987 27.7915 107.899 27.4786 106.918 26.8538L106.479 27.5436C107.595 28.2543 108.836 28.6092 110.189 28.6092V27.7915ZM106.92 26.8556C105.96 26.2329 105.186 25.3387 104.604 24.1563L103.87 24.5174C104.509 25.8152 105.376 26.829 106.476 27.5418L106.92 26.8556ZM104.607 24.1631C104.045 22.9677 103.759 21.5695 103.759 19.9583H102.941C102.941 21.6668 103.245 23.1876 103.867 24.5107L104.607 24.1631ZM103.759 19.9583C103.759 18.3468 104.046 16.9592 104.606 15.7843L103.868 15.4323C103.245 16.7376 102.941 18.25 102.941 19.9583H103.759ZM104.604 15.7889C105.186 14.6064 105.96 13.7123 106.92 13.0896L106.476 12.4034C105.376 13.1162 104.509 14.1299 103.87 15.4277L104.604 15.7889ZM106.918 13.0914C107.899 12.4666 108.987 12.1537 110.189 12.1537V11.336C108.836 11.336 107.595 11.6909 106.479 12.4016L106.918 13.0914ZM115.32 19.9583C115.32 18.85 115.01 17.9271 114.347 17.2414L113.759 17.81C114.24 18.3072 114.503 19.0061 114.503 19.9583H115.32ZM114.351 17.2464C113.72 16.5711 112.924 16.2297 111.992 16.2297V17.0474C112.701 17.0474 113.28 17.2974 113.754 17.805L114.351 17.2464ZM111.992 16.2297C111.044 16.2297 110.238 16.569 109.605 17.2464L110.202 17.805C110.675 17.2996 111.261 17.0474 111.992 17.0474V16.2297ZM109.609 17.2416C108.961 17.912 108.665 18.8377 108.665 19.9583H109.482C109.482 18.9802 109.739 18.2842 110.197 17.8099L109.609 17.2416ZM108.665 19.9583C108.665 21.0636 108.963 21.9907 109.6 22.694L110.206 22.1449C109.737 21.6271 109.482 20.9135 109.482 19.9583H108.665ZM109.605 22.6987C110.238 23.3762 111.044 23.7154 111.992 23.7154V22.8978C111.261 22.8978 110.675 22.6456 110.202 22.1401L109.605 22.6987ZM111.992 23.7154C112.924 23.7154 113.72 23.374 114.351 22.6987L113.754 22.1401C113.28 22.6477 112.701 22.8978 111.992 22.8978V23.7154ZM114.347 22.7038C115.012 22.0167 115.32 21.0833 115.32 19.9583H114.503C114.503 20.932 114.239 21.6393 113.759 22.1351L114.347 22.7038ZM131.39 28V28.4088H131.799V28H131.39ZM128.826 28L128.485 28.2258L128.606 28.4088H128.826V28ZM125.411 22.8454L125.752 22.6197L125.002 21.488V22.8454H125.411ZM125.411 28V28.4088H125.82V28H125.411ZM122.847 28H122.438V28.4088H122.847V28ZM122.847 18.7768V18.3679H122.438V18.7768H122.847ZM125.411 18.7768L125.753 18.5529L125.632 18.3679H125.411V18.7768ZM128.826 23.9967L128.484 24.2205L129.235 25.3685V23.9967H128.826ZM128.826 18.7768V18.3679H128.417V18.7768H128.826ZM131.39 18.7768H131.799V18.3679H131.39V18.7768ZM131.39 27.5912H128.826V28.4088H131.39V27.5912ZM129.167 27.7742L125.752 22.6197L125.07 23.0712L128.485 28.2258L129.167 27.7742ZM125.002 22.8454V28H125.82V22.8454H125.002ZM125.411 27.5912H122.847V28.4088H125.411V27.5912ZM123.256 28V18.7768H122.438V28H123.256ZM122.847 19.1856H125.411V18.3679H122.847V19.1856ZM125.069 19.0006L128.484 24.2205L129.168 23.7729L125.753 18.5529L125.069 19.0006ZM129.235 23.9967V18.7768H128.417V23.9967H129.235ZM128.826 19.1856H131.39V18.3679H128.826V19.1856ZM130.981 18.7768V28H131.799V18.7768H130.981ZM139.824 24.8471V25.2559H140.183L140.229 24.9L139.824 24.8471ZM134.97 24.8471V24.4383H134.534L134.562 24.8737L134.97 24.8471ZM135.297 25.7498L135.002 26.0324L135.008 26.0389L135.014 26.0452L135.297 25.7498ZM136.972 25.462V25.0531H136.714L136.603 25.2859L136.972 25.462ZM139.706 25.462L140.105 25.5514L140.216 25.0531H139.706V25.462ZM139.039 26.8226L138.723 26.5622L138.723 26.5629L139.039 26.8226ZM137.809 27.7514L137.979 28.1234L137.979 28.1234L137.809 27.7514ZM134.224 27.6337L134.028 27.9924L134.03 27.9937L134.224 27.6337ZM132.903 26.3254L132.545 26.5235L132.548 26.5277L132.903 26.3254ZM132.903 22.3352L133.259 22.5357L133.261 22.5333L132.903 22.3352ZM134.211 21.027L134.017 20.667L134.015 20.6683L134.211 21.027ZM138.084 21.0139L138.275 20.6528L138.275 20.6528L138.084 21.0139ZM139.392 22.296L139.036 22.4964L139.037 22.4988L139.392 22.296ZM137.246 23.6042V24.0131H137.655V23.6042H137.246ZM136.932 22.8716L136.663 23.1794L136.671 23.1857L136.932 22.8716ZM135.376 22.8585L135.636 23.1738L135.644 23.167L135.376 22.8585ZM134.983 23.6042L134.581 23.5302L134.492 24.0131H134.983V23.6042ZM139.454 24.2453C139.454 24.4281 139.442 24.611 139.418 24.7942L140.229 24.9C140.257 24.682 140.272 24.4637 140.272 24.2453H139.454ZM139.824 24.4383H134.97V25.2559H139.824V24.4383ZM134.562 24.8737C134.592 25.3288 134.719 25.737 135.002 26.0324L135.592 25.4672C135.491 25.3614 135.401 25.1678 135.378 24.8205L134.562 24.8737ZM135.014 26.0452C135.299 26.3174 135.657 26.4464 136.056 26.4464V25.6288C135.844 25.6288 135.696 25.5659 135.58 25.4544L135.014 26.0452ZM136.056 26.4464C136.332 26.4464 136.594 26.3838 136.823 26.2398C137.052 26.0958 137.222 25.8871 137.341 25.6381L136.603 25.2859C136.538 25.4206 136.464 25.4997 136.388 25.5476C136.311 25.5955 136.207 25.6288 136.056 25.6288V26.4464ZM136.972 25.8708H139.706V25.0531H136.972V25.8708ZM139.307 25.3726C139.208 25.8154 139.014 26.2104 138.723 26.5622L139.354 27.0829C139.726 26.6323 139.977 26.1203 140.105 25.5514L139.307 25.3726ZM138.723 26.5629C138.443 26.9038 138.084 27.1765 137.639 27.3795L137.979 28.1234C138.528 27.8728 138.989 27.5263 139.354 27.0822L138.723 26.5629ZM137.639 27.3795C137.201 27.5796 136.71 27.6827 136.16 27.6827V28.5004C136.815 28.5004 137.423 28.3768 137.979 28.1234L137.639 27.3795ZM136.16 27.6827C135.496 27.6827 134.918 27.5431 134.418 27.2737L134.03 27.9937C134.664 28.3348 135.377 28.5004 136.16 28.5004V27.6827ZM134.42 27.275C133.93 27.0071 133.544 26.6259 133.258 26.1232L132.548 26.5277C132.907 27.1587 133.402 27.6498 134.028 27.9924L134.42 27.275ZM133.261 26.1273C132.986 25.6313 132.841 25.0348 132.841 24.3238H132.023C132.023 25.1478 132.192 25.8857 132.545 26.5235L133.261 26.1273ZM132.841 24.3238C132.841 23.6126 132.986 23.0216 133.259 22.5357L132.547 22.1348C132.192 22.7653 132.023 23.5 132.023 24.3238H132.841ZM133.261 22.5333C133.538 22.0328 133.918 21.653 134.407 21.3857L134.015 20.6683C133.388 21.0114 132.896 21.5038 132.545 22.1371L133.261 22.5333ZM134.405 21.3869C134.905 21.1179 135.486 20.9779 136.16 20.9779V20.1602C135.37 20.1602 134.652 20.3255 134.017 20.667L134.405 21.3869ZM136.16 20.9779C136.827 20.9779 137.401 21.1141 137.892 21.3749L138.275 20.6528C137.65 20.3206 136.941 20.1602 136.16 20.1602V20.9779ZM137.892 21.3749C138.38 21.6343 138.759 22.0054 139.036 22.4964L139.748 22.0955C139.396 21.4701 138.904 20.9866 138.275 20.6528L137.892 21.3749ZM139.037 22.4988C139.31 22.976 139.454 23.5531 139.454 24.2453H140.272C140.272 23.4373 140.102 22.7149 139.747 22.0931L139.037 22.4988ZM137.655 23.6042C137.655 23.1896 137.511 22.822 137.194 22.5575L136.671 23.1857C136.772 23.2701 136.837 23.3909 136.837 23.6042H137.655ZM137.202 22.5639C136.908 22.3071 136.547 22.188 136.147 22.188V23.0057C136.376 23.0057 136.538 23.0698 136.663 23.1793L137.202 22.5639ZM136.147 22.188C135.754 22.188 135.395 22.2995 135.107 22.55L135.644 23.167C135.757 23.0687 135.913 23.0057 136.147 23.0057V22.188ZM135.115 22.5433C134.821 22.7864 134.654 23.1326 134.581 23.5302L135.385 23.6783C135.434 23.413 135.529 23.2621 135.636 23.1737L135.115 22.5433ZM134.983 24.0131H137.246V23.1954H134.983V24.0131ZM145.243 25.8152H145.651V25.4064H145.243V25.8152ZM145.243 28V28.4088H145.651V28H145.243ZM141.318 22.7931H141.727V22.3843H141.318V22.7931ZM140.415 22.7931H140.006V23.2019H140.415V22.7931ZM140.415 20.6606V20.2518H140.006V20.6606H140.415ZM141.318 20.6606V21.0695H141.727V20.6606H141.318ZM141.318 18.8814V18.4726H140.909V18.8814H141.318ZM143.895 18.8814H144.304V18.4726H143.895V18.8814ZM143.895 20.6606H143.486V21.0695H143.895V20.6606ZM145.229 20.6606H145.638V20.2518H145.229V20.6606ZM145.229 22.7931V23.2019H145.638V22.7931H145.229ZM143.895 22.7931V22.3843H143.486V22.7931H143.895ZM144.026 25.6844L143.737 25.9735L143.744 25.9803L143.751 25.9869L144.026 25.6844ZM144.834 25.8152V28H145.651V25.8152H144.834ZM145.243 27.5912H144.131V28.4088H145.243V27.5912ZM144.131 27.5912C143.255 27.5912 142.674 27.3745 142.309 27.0129C141.944 26.6521 141.727 26.0783 141.727 25.2134H140.909C140.909 26.2063 141.16 27.0258 141.733 27.5938C142.306 28.1611 143.131 28.4088 144.131 28.4088V27.5912ZM141.727 25.2134V22.7931H140.909V25.2134H141.727ZM141.318 22.3843H140.415V23.2019H141.318V22.3843ZM140.824 22.7931V20.6606H140.006V22.7931H140.824ZM140.415 21.0695H141.318V20.2518H140.415V21.0695ZM141.727 20.6606V18.8814H140.909V20.6606H141.727ZM141.318 19.2902H143.895V18.4726H141.318V19.2902ZM143.486 18.8814V20.6606H144.304V18.8814H143.486ZM143.895 21.0695H145.229V20.2518H143.895V21.0695ZM144.821 20.6606V22.7931H145.638V20.6606H144.821ZM145.229 22.3843H143.895V23.2019H145.229V22.3843ZM143.486 22.7931V25.2526H144.304V22.7931H143.486ZM143.486 25.2526C143.486 25.4968 143.537 25.7734 143.737 25.9735L144.315 25.3953C144.328 25.4086 144.326 25.414 144.319 25.3925C144.312 25.3693 144.304 25.3253 144.304 25.2526H143.486ZM143.751 25.9869C143.959 26.1761 144.242 26.224 144.497 26.224V25.4064C144.413 25.4064 144.358 25.3978 144.325 25.3886C144.293 25.3796 144.291 25.3729 144.301 25.3819L143.751 25.9869ZM144.497 26.224H145.243V25.4064H144.497V26.224Z" fill="#5D6B99"/>
<path opacity="0.8" d="M39.7342 18C39.7342 26.7427 32.3628 33.9558 23.1117 33.9558C13.8607 33.9558 6.48923 26.7427 6.48923 18C6.48923 9.25727 13.8607 2.04416 23.1117 2.04416C32.3628 2.04416 39.7342 9.25727 39.7342 18Z" stroke="#5D6B99" stroke-width="4.08832"/>
<path d="M36.2345 18C36.2345 26.7427 28.863 33.9558 19.612 33.9558C10.3609 33.9558 2.98947 26.7427 2.98947 18C2.98947 9.25727 10.3609 2.04416 19.612 2.04416C28.863 2.04416 36.2345 9.25727 36.2345 18Z" stroke="#5D6B99" stroke-width="4.08832"/>
<path opacity="0.5" d="M43.234 18C43.234 26.7427 35.8626 33.9558 26.6115 33.9558C17.3604 33.9558 9.98898 26.7427 9.98898 18C9.98898 9.25727 17.3604 2.04416 26.6115 2.04416C35.8626 2.04416 43.234 9.25727 43.234 18Z" stroke="#5D6B99" stroke-width="4.08832"/>
<path opacity="0.3" d="M46.735 18C46.735 26.7427 39.3635 33.9558 30.1125 33.9558C20.8614 33.9558 13.49 26.7427 13.49 18C13.49 9.25727 20.8614 2.04416 30.1125 2.04416C39.3635 2.04416 46.735 9.25727 46.735 18Z" stroke="#5D6B99" stroke-width="4.08832"/>
</svg>
