<svg width="128" height="51" viewBox="0 0 128 51" fill="none" xmlns="http://www.w3.org/2000/svg">
<path d="M5.77194 49.0996H5.13873L4.34453 45.3728L3.56107 49.0996H2.92785L1.9834 44.7443H2.46636L3.26056 48.5483H3.27129L4.07622 44.7443H4.64504L5.4607 48.5483H5.47144L6.2549 44.7443H6.7164L5.77194 49.0996Z" fill="#0B848E"/>
<path d="M11.3852 49.0996V47.1369C11.3852 47.0377 11.3744 46.9495 11.3637 46.8503C11.353 46.751 11.3315 46.6628 11.2886 46.5856C11.2564 46.5084 11.2027 46.4423 11.1276 46.3872C11.0525 46.332 10.9666 46.31 10.8485 46.31C10.7305 46.31 10.6339 46.3431 10.548 46.3982C10.4622 46.4533 10.387 46.5305 10.3226 46.6297C10.2583 46.729 10.2153 46.8392 10.1724 46.9605C10.1402 47.0818 10.1187 47.2141 10.1187 47.3464V49.0996H9.66797V44.4465H10.1187V46.6187H10.1402C10.1939 46.4202 10.3012 46.2548 10.4407 46.1336C10.591 46.0012 10.7627 45.9461 10.9881 45.9461C11.1705 45.9461 11.3208 45.9792 11.4281 46.0453C11.5354 46.1115 11.6213 46.2107 11.6857 46.321C11.7393 46.4313 11.7823 46.5636 11.8037 46.7069C11.8252 46.8503 11.8359 46.9936 11.8359 47.1259V49.0886H11.3852V49.0996Z" fill="#0B848E"/>
<path d="M15.4312 47.655C15.4312 47.8204 15.442 47.9747 15.4742 48.1181C15.5064 48.2614 15.5493 48.3827 15.6137 48.4819C15.6781 48.5812 15.7532 48.6694 15.8498 48.7245C15.9464 48.7796 16.0537 48.8127 16.1825 48.8127C16.3435 48.8127 16.483 48.7686 16.5796 48.6804C16.6762 48.5922 16.7621 48.4819 16.8157 48.3496L17.1592 48.526C17.0733 48.7135 16.9552 48.8678 16.7942 48.9891C16.6333 49.1104 16.4293 49.1766 16.1718 49.1766C15.7961 49.1766 15.4956 49.0332 15.2917 48.7466C15.0771 48.4599 14.9805 48.0629 14.9805 47.5557C14.9805 47.3131 15.0127 47.1036 15.0663 46.8941C15.12 46.6957 15.1951 46.5192 15.3024 46.3759C15.4098 46.2326 15.5278 46.1223 15.6781 46.0451C15.8283 45.9679 15.9893 45.9238 16.1718 45.9238C16.3757 45.9238 16.5367 45.9679 16.6762 46.0451C16.8157 46.1223 16.923 46.2326 17.0089 46.3649C17.0948 46.4972 17.1592 46.6626 17.1913 46.839C17.2343 47.0154 17.245 47.2139 17.245 47.4124V47.6329H15.4312V47.655ZM16.805 47.3242C16.805 47.0154 16.7513 46.7729 16.644 46.5854C16.5367 46.398 16.3757 46.3097 16.1503 46.3097C16.0215 46.3097 15.9035 46.3428 15.8176 46.42C15.7317 46.4972 15.6566 46.5854 15.6029 46.6846C15.5493 46.7839 15.5064 46.9052 15.4742 47.0154C15.4527 47.1367 15.4312 47.236 15.4312 47.3242H16.805Z" fill="#0B848E"/>
<path d="M21.1629 46.1335C21.2917 46.0122 21.4419 45.957 21.6136 45.957C21.6458 45.957 21.678 45.957 21.6995 45.9681L21.6888 46.3871C21.6673 46.3871 21.6566 46.376 21.6351 46.376C21.6244 46.376 21.6029 46.376 21.5814 46.376C21.4634 46.376 21.3668 46.4091 21.2809 46.4753C21.1951 46.5414 21.12 46.6407 21.0556 46.7509C20.9912 46.8612 20.9482 46.9825 20.9268 47.1258C20.8946 47.2692 20.8838 47.4125 20.8838 47.5448V49.0995H20.4331V46.8171C20.4331 46.7509 20.4331 46.6848 20.4331 46.6076C20.4331 46.5304 20.4331 46.4532 20.4223 46.3871C20.4223 46.3099 20.4223 46.2547 20.4116 46.1886C20.4116 46.1335 20.4009 46.0783 20.4009 46.0452H20.8409C20.8516 46.1224 20.8516 46.2217 20.8624 46.3319C20.8624 46.4532 20.8731 46.5745 20.8731 46.7068H20.8838C20.9375 46.4422 21.0341 46.2547 21.1629 46.1335Z" fill="#0B848E"/>
<path d="M24.7901 47.655C24.7901 47.8204 24.8008 47.9747 24.833 48.1181C24.8652 48.2614 24.9082 48.3827 24.9726 48.4819C25.037 48.5812 25.1121 48.6694 25.2087 48.7245C25.3053 48.7796 25.4126 48.8127 25.5414 48.8127C25.7024 48.8127 25.8419 48.7686 25.9385 48.6804C26.0351 48.5922 26.1209 48.4819 26.1746 48.3496L26.518 48.526C26.4322 48.7135 26.3141 48.8678 26.1531 48.9891C25.9921 49.1104 25.7882 49.1766 25.5307 49.1766C25.155 49.1766 24.8545 49.0332 24.6506 48.7466C24.4359 48.4599 24.3394 48.0629 24.3394 47.5557C24.3394 47.3131 24.3716 47.1036 24.4252 46.8941C24.4789 46.6957 24.554 46.5192 24.6613 46.3759C24.7687 46.2326 24.8867 46.1223 25.037 46.0451C25.1872 45.9679 25.3482 45.9238 25.5307 45.9238C25.7346 45.9238 25.8956 45.9679 26.0351 46.0451C26.1746 46.1223 26.2819 46.2326 26.3678 46.3649C26.4536 46.4972 26.518 46.6626 26.5502 46.839C26.5932 47.0154 26.6039 47.2139 26.6039 47.4124V47.6329H24.7901V47.655ZM26.1639 47.3242C26.1639 47.0154 26.1102 46.7729 26.0029 46.5854C25.8956 46.398 25.7346 46.3097 25.5092 46.3097C25.3804 46.3097 25.2623 46.3428 25.1765 46.42C25.0906 46.4972 25.0155 46.5854 24.9618 46.6846C24.9082 46.7839 24.8652 46.9052 24.833 47.0154C24.8116 47.1367 24.7901 47.236 24.7901 47.3242H26.1639Z" fill="#0B848E"/>
<path d="M32.6614 49.0996V44.7443H34.6039V45.1302H33.1229V46.6518H34.5074V47.0157H33.1229V48.7027H34.6683V49.0886H32.6614V49.0996Z" fill="#0B848E"/>
<path d="M38.7558 49.0997H38.2191L37.3069 46.0454H37.7898L38.4875 48.6697H38.4982L39.1636 46.0454H39.6251L38.7558 49.0997Z" fill="#0B848E"/>
<path d="M42.8555 47.655C42.8555 47.8204 42.8663 47.9747 42.8985 48.1181C42.9307 48.2614 42.9736 48.3827 43.038 48.4819C43.1024 48.5812 43.1775 48.6694 43.2741 48.7245C43.3707 48.7796 43.478 48.8127 43.6068 48.8127C43.7678 48.8127 43.9073 48.7686 44.0039 48.6804C44.1005 48.5922 44.1864 48.4819 44.24 48.3496L44.5835 48.526C44.4976 48.7135 44.3796 48.8678 44.2186 48.9891C44.0576 49.1104 43.8537 49.1766 43.5961 49.1766C43.2205 49.1766 42.9199 49.0332 42.716 48.7466C42.5014 48.4599 42.4048 48.0629 42.4048 47.5557C42.4048 47.3131 42.437 47.1036 42.4906 46.8941C42.5443 46.6957 42.6194 46.5192 42.7268 46.3759C42.8341 46.2326 42.9521 46.1223 43.1024 46.0451C43.2526 45.9679 43.4136 45.9238 43.5961 45.9238C43.8 45.9238 43.961 45.9679 44.1005 46.0451C44.24 46.1223 44.3474 46.2326 44.4332 46.3649C44.5191 46.4972 44.5835 46.6626 44.6157 46.839C44.6586 47.0154 44.6693 47.2139 44.6693 47.4124V47.6329H42.8555V47.655ZM44.2186 47.3242C44.2186 47.0154 44.1649 46.7729 44.0576 46.5854C43.9503 46.398 43.7893 46.3097 43.5639 46.3097C43.4351 46.3097 43.317 46.3428 43.2312 46.42C43.1453 46.4972 43.0702 46.5854 43.0165 46.6846C42.9629 46.7839 42.9199 46.9052 42.8877 47.0154C42.8663 47.1367 42.8448 47.236 42.8448 47.3242H44.2186Z" fill="#0B848E"/>
<path d="M48.5872 46.1335C48.716 46.0122 48.8662 45.957 49.038 45.957C49.0702 45.957 49.1024 45.957 49.1238 45.9681L49.1131 46.3871C49.0916 46.3871 49.0809 46.376 49.0594 46.376C49.0487 46.376 49.0272 46.376 49.0058 46.376C48.8877 46.376 48.7911 46.4091 48.7053 46.4753C48.6194 46.5414 48.5443 46.6407 48.4799 46.7509C48.4155 46.8612 48.3725 46.9825 48.3511 47.1258C48.3189 47.2692 48.3082 47.4125 48.3082 47.5448V49.0995H47.8574V46.8171C47.8574 46.7509 47.8574 46.6848 47.8574 46.6076C47.8574 46.5304 47.8574 46.4532 47.8467 46.3871C47.8467 46.3099 47.8467 46.2547 47.8359 46.1886C47.8359 46.1335 47.8252 46.0783 47.8252 46.0452H48.2652C48.276 46.1224 48.276 46.2217 48.2867 46.3319C48.2867 46.4532 48.2974 46.5745 48.2974 46.7068H48.3082C48.3511 46.4422 48.4477 46.2547 48.5872 46.1335Z" fill="#0B848E"/>
<path d="M52.8585 49.7498C52.8263 49.8822 52.7833 49.9924 52.7297 50.1027C52.6868 50.2019 52.6224 50.2901 52.558 50.3563C52.4936 50.4224 52.4077 50.4776 52.3219 50.5217C52.236 50.5548 52.1287 50.5768 51.9999 50.5768C51.9355 50.5768 51.8711 50.5768 51.8067 50.5658C51.7423 50.5548 51.6886 50.5437 51.6457 50.5327L51.7101 50.1799C51.7423 50.1909 51.7852 50.1909 51.8282 50.2019C51.8711 50.2129 51.914 50.2129 51.9677 50.2129C52.0965 50.2129 52.2038 50.1688 52.2682 50.0917C52.3326 50.0145 52.3862 49.8932 52.4292 49.7498L52.5794 49.2206L51.592 46.056H52.075L52.8048 48.6362H52.8155L53.4595 46.056H53.921L52.8585 49.7498Z" fill="#0B848E"/>
<path d="M62.7697 46.9275C62.7697 47.2803 62.7267 47.6001 62.6516 47.8647C62.5658 48.1404 62.4477 48.3609 62.2974 48.5483C62.1472 48.7358 61.954 48.8681 61.7394 48.9563C61.5247 49.0445 61.2779 49.0996 61.0203 49.0996H59.9792V44.7443H61.0203C61.2886 44.7443 61.5247 44.7884 61.7394 44.8876C61.954 44.9758 62.1365 45.1192 62.2974 45.3066C62.4477 45.4941 62.5658 45.7146 62.6516 45.9902C62.7267 46.2549 62.7697 46.5746 62.7697 46.9275ZM62.2974 46.9275C62.2974 46.6187 62.2652 46.3541 62.2009 46.1225C62.1365 45.891 62.0399 45.7036 61.9325 45.5602C61.8145 45.4169 61.675 45.3066 61.5247 45.2294C61.3637 45.1522 61.2027 45.1192 61.0203 45.1192H60.4622V48.7358H61.0203C61.2027 48.7358 61.3745 48.7027 61.5247 48.6255C61.6857 48.5483 61.8145 48.4381 61.9325 48.2947C62.0506 48.1514 62.1365 47.9639 62.2009 47.7324C62.2652 47.5008 62.2974 47.2362 62.2974 46.9275Z" fill="#0B848E"/>
<path d="M66.2142 47.655C66.2142 47.8204 66.2249 47.9747 66.2571 48.1181C66.2893 48.2614 66.3322 48.3827 66.3966 48.4819C66.461 48.5812 66.5362 48.6694 66.6328 48.7245C66.7294 48.7796 66.8367 48.8127 66.9655 48.8127C67.1264 48.8127 67.266 48.7686 67.3626 48.6804C67.4592 48.5922 67.545 48.4819 67.5987 48.3496L67.9421 48.526C67.8562 48.7135 67.7382 48.8678 67.5772 48.9891C67.4162 49.1104 67.2123 49.1766 66.9547 49.1766C66.5791 49.1766 66.2786 49.0332 66.0747 48.7466C65.86 48.4599 65.7634 48.0629 65.7634 47.5557C65.7634 47.3131 65.7956 47.1036 65.8493 46.8941C65.9029 46.6957 65.9781 46.5192 66.0854 46.3759C66.1927 46.2326 66.3108 46.1223 66.461 46.0451C66.6113 45.9679 66.7723 45.9238 66.9547 45.9238C67.1586 45.9238 67.3196 45.9679 67.4591 46.0451C67.5987 46.1223 67.706 46.2326 67.7919 46.3649C67.8777 46.4972 67.9421 46.6626 67.9743 46.839C68.0172 47.0154 68.028 47.2139 68.028 47.4124V47.6329H66.2142V47.655ZM67.5772 47.3242C67.5772 47.0154 67.5235 46.7729 67.4162 46.5854C67.3089 46.398 67.1479 46.3097 66.9225 46.3097C66.7937 46.3097 66.6757 46.3428 66.5898 46.42C66.504 46.4972 66.4288 46.5854 66.3752 46.6846C66.3215 46.7839 66.2786 46.9052 66.2464 47.0154C66.2249 47.1367 66.2035 47.236 66.2035 47.3242H67.5772Z" fill="#0B848E"/>
<path d="M72.0855 49.1551C72.0103 49.1661 71.9352 49.1771 71.8601 49.1771C71.624 49.1771 71.4523 49.0999 71.3557 48.9566C71.2591 48.8132 71.2054 48.6148 71.2054 48.3612V46.3764H70.7654V46.0456H71.2054V45.2076H71.6454V46.0456H72.2465V46.3764H71.6454V48.295C71.6454 48.4825 71.6776 48.6148 71.7313 48.703C71.7957 48.7912 71.8816 48.8243 71.9996 48.8243C72.0425 48.8243 72.0855 48.8243 72.1284 48.8132C72.1713 48.8022 72.2143 48.7912 72.2465 48.7802L72.2679 49.1109C72.225 49.122 72.1606 49.133 72.0855 49.1551Z" fill="#0B848E"/>
<path d="M76.6142 49.0995C76.6142 49.0664 76.6035 49.0223 76.6035 48.9782C76.6035 48.9341 76.6035 48.879 76.5927 48.8239C76.5927 48.7687 76.5927 48.7136 76.5927 48.6585C76.5927 48.6033 76.5927 48.5592 76.5927 48.5262H76.582C76.464 48.9562 76.1956 49.1767 75.7663 49.1767C75.6698 49.1767 75.5732 49.1657 75.4766 49.1326C75.38 49.0995 75.2941 49.0444 75.219 48.9782C75.1439 48.9011 75.0795 48.8128 75.0258 48.7026C74.9721 48.5923 74.9507 48.449 74.9507 48.2946C74.9507 48.0741 74.9936 47.8977 75.0795 47.7543C75.1653 47.622 75.2727 47.5117 75.4122 47.4346C75.541 47.3574 75.6912 47.3022 75.8415 47.2802C76.0025 47.2581 76.142 47.2361 76.2922 47.2361H76.5605V47.0817C76.5605 46.8171 76.5069 46.6186 76.3996 46.4973C76.2922 46.376 76.142 46.3099 75.9595 46.3099C75.8307 46.3099 75.7127 46.343 75.6054 46.3981C75.498 46.4642 75.4014 46.5414 75.3263 46.6296L75.0902 46.376C75.1975 46.2437 75.3263 46.1335 75.498 46.0673C75.6698 45.9901 75.8307 45.957 76.0025 45.957C76.3566 45.957 76.6142 46.0563 76.7645 46.2658C76.9147 46.4753 76.9898 46.784 76.9898 47.181V48.449C76.9898 48.4931 76.9898 48.5372 76.9898 48.6033C76.9898 48.6695 76.9898 48.7246 77.0006 48.7908C77.0006 48.8569 77.0113 48.9121 77.0113 48.9672C77.0113 49.0223 77.022 49.0664 77.022 49.0995H76.6142V49.0995ZM76.5605 47.5448H76.2922C76.1849 47.5448 76.0776 47.5558 75.9595 47.5779C75.8522 47.6 75.7556 47.633 75.6698 47.6771C75.5839 47.7323 75.5195 47.7984 75.4658 47.8866C75.4122 47.9748 75.38 48.0961 75.38 48.2395C75.38 48.449 75.4336 48.6033 75.541 48.7026C75.6483 48.8018 75.7556 48.8459 75.8844 48.8459C76.0132 48.8459 76.1205 48.8128 76.2064 48.7467C76.2922 48.6805 76.3674 48.5923 76.421 48.4821C76.4747 48.3718 76.5069 48.2615 76.5283 48.1292C76.5498 47.9969 76.5605 47.8756 76.5605 47.7653V47.5448Z" fill="#0B848E"/>
<path d="M80.8005 45.1195C80.8005 45.2077 80.7683 45.2739 80.7146 45.329C80.6502 45.3841 80.5858 45.4172 80.5 45.4172C80.4141 45.4172 80.339 45.3841 80.2853 45.329C80.2317 45.2739 80.1995 45.2077 80.1995 45.1195C80.1995 45.0423 80.2317 44.9651 80.2853 44.91C80.339 44.8549 80.4141 44.8218 80.5 44.8218C80.5858 44.8218 80.661 44.8549 80.7146 44.91C80.7683 44.9651 80.8005 45.0313 80.8005 45.1195ZM80.2746 49.1V46.0457H80.7254V49.1H80.2746Z" fill="#0B848E"/>
<path d="M84.0952 49.0996V44.4465H84.546V49.0996H84.0952Z" fill="#0B848E"/>
<path d="M92.9115 49.0443C92.7183 49.1436 92.4929 49.1987 92.2461 49.1987C91.9778 49.1987 91.7524 49.1436 91.5485 49.0223C91.3445 48.901 91.1728 48.7466 91.0333 48.5482C90.8938 48.3497 90.7865 48.1071 90.7113 47.8204C90.6362 47.5448 90.604 47.236 90.604 46.9163C90.604 46.5855 90.6362 46.2878 90.7113 46.0011C90.7865 45.7254 90.8938 45.4829 91.044 45.2734C91.1836 45.0749 91.366 44.9095 91.5699 44.7992C91.7738 44.689 92.01 44.6228 92.2675 44.6228C92.4929 44.6228 92.7076 44.6669 92.9007 44.7551C93.0939 44.8433 93.2656 44.9756 93.3944 45.1631L93.0832 45.4498C92.9759 45.3064 92.8578 45.1962 92.7183 45.13C92.5788 45.0639 92.4285 45.0308 92.2783 45.0308C92.0743 45.0308 91.9026 45.0749 91.7524 45.1741C91.6021 45.2734 91.4841 45.4057 91.3875 45.5821C91.2909 45.7585 91.2158 45.957 91.1728 46.1885C91.1299 46.4201 91.0977 46.6627 91.0977 46.9163C91.0977 47.1699 91.1192 47.4125 91.1728 47.644C91.2265 47.8756 91.3016 48.074 91.3982 48.2394C91.4948 48.4158 91.6236 48.5482 91.7631 48.6474C91.9134 48.7466 92.0851 48.8018 92.289 48.8018C92.4607 48.8018 92.6217 48.7577 92.7612 48.6695C92.9007 48.5812 93.0188 48.471 93.1047 48.3276L93.4052 48.6033C93.2656 48.8018 93.1047 48.9451 92.9115 49.0443Z" fill="#0B848E"/>
<path d="M98.4395 47.5778C98.4395 47.8204 98.4073 48.0409 98.3536 48.2394C98.3 48.4379 98.2248 48.6033 98.1175 48.7466C98.0209 48.8899 97.8921 49.0002 97.7419 49.0774C97.5916 49.1546 97.4306 49.1987 97.2482 49.1987C97.0657 49.1987 96.9047 49.1546 96.7545 49.0774C96.6042 49.0002 96.4862 48.8899 96.3789 48.7466C96.2715 48.6033 96.1964 48.4379 96.1427 48.2394C96.0891 48.0409 96.0569 47.8204 96.0569 47.5778C96.0569 47.3352 96.0784 47.1147 96.132 46.9162C96.1857 46.7178 96.2608 46.5413 96.3574 46.398C96.454 46.2547 96.5828 46.1444 96.733 46.0672C96.8833 45.99 97.0443 45.9459 97.2374 45.9459C97.4199 45.9459 97.5809 45.99 97.7311 46.0672C97.8814 46.1444 97.9995 46.2547 98.1068 46.398C98.2034 46.5413 98.2892 46.7178 98.3429 46.9162C98.4073 47.1147 98.4395 47.3352 98.4395 47.5778ZM97.978 47.5668C97.978 47.3904 97.9673 47.2139 97.9351 47.0596C97.9029 46.9052 97.8599 46.7729 97.8063 46.6626C97.7419 46.5524 97.6775 46.4642 97.5809 46.398C97.495 46.3318 97.3877 46.2988 97.2589 46.2988C97.1409 46.2988 97.0335 46.3318 96.9369 46.398C96.8511 46.4642 96.776 46.5524 96.7116 46.6626C96.6579 46.7729 96.615 46.9052 96.5828 47.0596C96.5506 47.2139 96.5398 47.3793 96.5398 47.5668C96.5398 47.7432 96.5506 47.9086 96.5828 48.063C96.615 48.2173 96.6579 48.3497 96.7116 48.4599C96.7652 48.5702 96.8404 48.6584 96.9369 48.7245C97.0228 48.7907 97.1301 48.8238 97.2589 48.8238C97.377 48.8238 97.4843 48.7907 97.5809 48.7245C97.6668 48.6584 97.7419 48.5702 97.8063 48.4599C97.8599 48.3497 97.9029 48.2173 97.9351 48.063C97.9565 47.9196 97.978 47.7542 97.978 47.5668Z" fill="#0B848E"/>
<path d="M102.024 46.0454V48.0081C102.024 48.1073 102.035 48.1955 102.046 48.2948C102.056 48.394 102.078 48.4822 102.121 48.5594C102.164 48.6366 102.217 48.7027 102.282 48.7579C102.346 48.813 102.443 48.8351 102.561 48.8351C102.679 48.8351 102.776 48.802 102.861 48.7469C102.947 48.6917 103.022 48.6145 103.087 48.5153C103.151 48.4161 103.194 48.3058 103.226 48.1845C103.258 48.0632 103.28 47.9309 103.28 47.7986V46.0454H103.731V48.3279C103.731 48.394 103.731 48.4602 103.731 48.5374C103.731 48.6145 103.731 48.6917 103.741 48.7579C103.741 48.8351 103.741 48.9012 103.752 48.9564C103.752 49.0225 103.763 49.0666 103.763 49.0887H103.323C103.312 49.0115 103.312 48.9122 103.301 48.802C103.301 48.6917 103.291 48.5815 103.291 48.4932H103.28C103.216 48.7027 103.108 48.8681 102.969 48.9894C102.818 49.1217 102.636 49.1879 102.421 49.1879C102.239 49.1879 102.089 49.1548 101.981 49.0887C101.874 49.0225 101.788 48.9233 101.724 48.813C101.659 48.7027 101.627 48.5704 101.606 48.4381C101.584 48.2948 101.573 48.1625 101.573 48.0191V46.0564H102.024V46.0454Z" fill="#0B848E"/>
<path d="M108.871 49.0994V47.1368C108.871 47.0375 108.861 46.9493 108.85 46.8501C108.839 46.7508 108.818 46.6626 108.775 46.5854C108.732 46.5083 108.678 46.4421 108.614 46.387C108.539 46.3318 108.453 46.3098 108.335 46.3098C108.217 46.3098 108.12 46.3429 108.034 46.398C107.948 46.4531 107.873 46.5303 107.809 46.6296C107.745 46.7288 107.702 46.8391 107.669 46.9603C107.637 47.0816 107.616 47.2139 107.616 47.3463V49.0994H107.165V46.817C107.165 46.7508 107.165 46.6847 107.165 46.6075C107.165 46.5303 107.165 46.4531 107.154 46.387C107.154 46.3098 107.154 46.2547 107.144 46.1885C107.144 46.1334 107.133 46.0782 107.133 46.0452H107.573C107.584 46.1223 107.584 46.2216 107.594 46.3318C107.594 46.4421 107.605 46.5524 107.605 46.6406H107.616C107.68 46.4311 107.787 46.2657 107.927 46.1444C108.077 46.0121 108.26 45.9459 108.474 45.9459C108.657 45.9459 108.807 45.979 108.914 46.0452C109.022 46.1113 109.108 46.2106 109.172 46.3208C109.226 46.4311 109.269 46.5634 109.29 46.7067C109.311 46.8501 109.322 46.9934 109.322 47.1257V49.0884H108.871V49.0994Z" fill="#0B848E"/>
<path d="M113.573 49.1551C113.498 49.1661 113.423 49.1771 113.348 49.1771C113.112 49.1771 112.94 49.0999 112.843 48.9566C112.747 48.8132 112.693 48.6148 112.693 48.3612V46.3764H112.253V46.0456H112.693V45.2076H113.133V46.0456H113.734V46.3764H113.133V48.295C113.133 48.4825 113.165 48.6148 113.219 48.703C113.283 48.7912 113.369 48.8243 113.487 48.8243C113.53 48.8243 113.573 48.8243 113.616 48.8132C113.659 48.8022 113.702 48.7912 113.734 48.7802L113.755 49.1109C113.713 49.122 113.648 49.133 113.573 49.1551Z" fill="#0B848E"/>
<path d="M117.973 46.5744C117.908 46.4862 117.833 46.409 117.747 46.3539C117.651 46.2988 117.543 46.2657 117.415 46.2657C117.264 46.2657 117.146 46.3098 117.06 46.409C116.964 46.5083 116.921 46.6296 116.921 46.7839C116.921 46.9493 116.964 47.0706 117.06 47.1368C117.146 47.2139 117.286 47.2801 117.468 47.3352C117.554 47.3683 117.651 47.4124 117.737 47.4565C117.822 47.5006 117.908 47.5668 117.983 47.6329C118.058 47.6991 118.112 47.7873 118.155 47.8865C118.198 47.9858 118.219 48.096 118.219 48.2284C118.219 48.5261 118.134 48.7576 117.951 48.923C117.769 49.0884 117.543 49.1766 117.254 49.1766C117.06 49.1766 116.889 49.1325 116.728 49.0553C116.567 48.9782 116.438 48.8679 116.331 48.7356L116.599 48.4709C116.674 48.5812 116.771 48.6694 116.878 48.7356C116.985 48.8017 117.114 48.8348 117.254 48.8348C117.415 48.8348 117.543 48.7797 117.64 48.6804C117.737 48.5812 117.79 48.4379 117.79 48.2614C117.79 48.1622 117.769 48.085 117.737 48.0078C117.704 47.9417 117.651 47.8865 117.597 47.8424C117.533 47.7983 117.468 47.7542 117.393 47.7212C117.318 47.6881 117.243 47.655 117.157 47.6329C117.071 47.5999 116.985 47.5668 116.91 47.5337C116.835 47.4896 116.76 47.4345 116.695 47.3793C116.631 47.3132 116.577 47.236 116.545 47.1478C116.502 47.0596 116.492 46.9493 116.492 46.817C116.492 46.6847 116.513 46.5744 116.567 46.4642C116.62 46.3539 116.685 46.2657 116.771 46.1885C116.856 46.1113 116.953 46.0562 117.071 46.0121C117.178 45.968 117.307 45.9459 117.436 45.9459C117.629 45.9459 117.79 45.979 117.93 46.0452C118.069 46.1113 118.177 46.1995 118.262 46.3098L117.973 46.5744Z" fill="#0B848E"/>
<path d="M42.5008 20.8173C42.5008 9.36096 33.4319 0.0327148 22.2702 0.0327148C11.1085 0.0327148 2.03955 9.34993 2.03955 20.8173C2.03955 32.2736 11.1085 41.6018 22.2702 41.6018C33.4319 41.6018 42.5008 32.2736 42.5008 20.8173ZM22.2702 41.0174C11.4304 41.0174 2.60837 31.9538 2.60837 20.8173C2.60837 9.68072 11.4304 0.617109 22.2702 0.617109C33.1099 0.617109 41.932 9.68072 41.932 20.8173C41.932 31.9538 33.1099 41.0174 22.2702 41.0174Z" fill="#0B848E"/>
<path d="M27.7541 6.72534C27.0565 4.82882 25.0817 3.79235 23.182 4.31058C21.1429 4.87292 19.9194 7.02305 20.4667 9.12907C20.8209 10.4963 21.8405 11.4997 23.064 11.8856L16.3348 27.6863L8.36057 9.08497C8.13518 8.57776 8.00639 8.02644 7.99566 7.47513C7.99566 6.43866 8.54302 5.62271 9.70212 5.26987H0C1.10544 5.744 1.88891 7.39794 2.58652 9.08497L13.8556 35.4488L16.6245 28.7779C18.653 31.0163 21.3683 32.4607 24.3197 32.8797C31.3494 33.85 37.8104 28.789 38.7655 21.5667C39.71 14.3335 34.7838 7.69565 27.7541 6.72534ZM27.8721 7.08921C30.8557 7.54129 33.5818 9.09599 35.5458 11.4666C37.1771 13.4293 38.1323 15.7669 38.4221 18.1486C38.3684 18.1706 38.3255 18.2147 38.2826 18.2699C37.2201 19.8356 35.6209 21.5447 33.4852 23.3971C29.6322 26.8152 26.5413 28.5243 24.2016 28.5243C22.1625 28.5243 21.1322 27.6974 21.1322 26.0544C21.1322 24.202 21.8083 22.8789 23.1713 22.0739C25.2749 20.9823 27.1852 19.5599 28.8595 17.8619C30.3406 16.3292 31.0811 15.0392 31.0811 14.0027C31.0811 13.2309 30.5767 12.8449 29.5678 12.8449C28.5912 12.8449 27.5931 13.1537 26.595 13.7601C23.7723 15.5905 21.5937 17.8288 20.0589 20.4751L23.6757 11.9959C24.1587 12.0621 24.6524 12.029 25.1568 11.8967C27.196 11.3454 28.4087 9.19523 27.8721 7.08921ZM23.182 21.5998C23.1284 21.5337 23.0962 21.4454 23.0962 21.3572C23.0962 21.1477 23.225 20.839 23.4933 20.442C25.028 17.9501 26.6808 15.9764 28.4302 14.5209C29.2029 13.8814 29.804 13.5616 30.2547 13.5616C30.4372 13.5616 30.5552 13.7822 30.6089 14.2342C30.3728 15.2928 29.7932 16.2741 28.881 17.1783C27.1638 18.9094 25.2534 20.3979 23.182 21.5998ZM34.1399 29.5608C28.9668 34.0926 21.2288 33.5303 16.7211 28.3369L18.8783 23.2868C18.7925 23.6838 18.7496 24.0918 18.7388 24.4997C18.7388 26.727 19.7584 28.1715 21.8083 28.8331C22.4093 29.0205 23.0425 29.1087 23.6757 29.1087C26.4876 29.1087 29.9113 27.2894 33.9359 23.6617C35.8141 22.0078 37.3274 20.3649 38.4865 18.733C38.7977 22.7135 37.3167 26.7822 34.1399 29.5608Z" fill="#0B848E"/>
<path d="M46.5767 5.83264L56.8476 26.7054L59.638 21.0269L52.1683 5.83264H46.5767Z" fill="#0B848E"/>
<path d="M62.0318 5.86584C60.2932 5.86584 58.8979 7.31029 58.8979 9.08552C58.8979 10.8608 60.3039 12.3052 62.0318 12.3052C63.7597 12.3052 65.1657 10.8608 65.1657 9.08552C65.1657 7.31029 63.7705 5.86584 62.0318 5.86584Z" fill="#0B848E"/>
<path d="M71.8617 12.923H66.8711V22.8797C66.8711 24.9857 68.5346 26.6838 70.5738 26.6838C71.4002 26.6838 72.2158 26.3971 72.8598 25.8678L75.2639 23.9162H71.8509V12.923H71.8617Z" fill="#0B848E"/>
<path d="M69.3835 11.0042C70.7679 11.0042 71.8841 9.85749 71.8841 8.43509C71.8841 7.0127 70.7679 5.86597 69.3835 5.86597C67.999 5.86597 66.8828 7.0127 66.8828 8.43509C66.8828 9.85749 67.999 11.0042 69.3835 11.0042Z" fill="#0B848E"/>
<path d="M86.147 18.8218C86.0182 18.7005 81.1564 14.5105 81.1564 14.5105L79.1602 12.7904C79.128 12.7573 79.0851 12.7353 79.0529 12.7022C78.7309 12.4045 78.5485 11.9855 78.5485 11.5444C78.5485 10.6733 79.2353 9.96765 80.0832 9.96765C79.0099 9.96765 77.9796 10.3756 77.1747 11.1034C76.241 11.9524 75.7151 13.1763 75.7151 14.4554C75.7151 15.6903 76.2088 16.8701 77.0888 17.7191C77.2176 17.8404 84.1508 23.8057 84.183 23.8387C84.5049 24.1364 84.6767 24.5554 84.6874 24.9965C84.6874 25.8676 84.0005 26.5733 83.1527 26.5733C84.2259 26.5733 85.2562 26.1653 86.0611 25.4375C86.9949 24.5885 87.5208 23.3646 87.5208 22.0855C87.5208 20.8506 87.0163 19.6708 86.147 18.8218Z" fill="#0B848E"/>
<path d="M78.269 21.4238C76.8845 21.4238 75.7683 22.5706 75.7683 23.993C75.7683 25.4153 76.8845 26.5621 78.269 26.5621C79.6534 26.5621 80.7696 25.4153 80.7696 23.993C80.7696 22.5816 79.6534 21.4238 78.269 21.4238Z" fill="#0B848E"/>
<path d="M105.842 11.6657V9.95667H102.45V5.82181C102.45 5.78873 102.439 5.76668 102.439 5.7336C102.192 4.35531 101.549 3.08729 100.583 2.10595C99.3269 0.81587 97.6205 0.0881348 95.8496 0.0881348C94.068 0.0881348 92.3616 0.804844 91.1166 2.10595C89.7321 3.53936 89.056 5.47999 89.1741 7.40959C88.8199 7.85064 88.616 8.41299 88.616 9.03046C88.616 10.4528 89.7321 11.5996 91.1166 11.5996C92.5011 11.5996 93.6173 10.4528 93.6173 9.03046C93.6173 7.60807 92.5011 6.46133 91.1166 6.46133C90.4834 6.46133 89.9039 6.70391 89.4531 7.11188C89.3887 5.41383 89.9575 3.72681 91.2454 2.40366C92.4582 1.14666 94.1217 0.440976 95.8496 0.440976C97.5775 0.440976 99.2303 1.14666 100.454 2.40366C101.42 3.385 102.053 4.65302 102.268 6.03131L97.4595 9.75819V22.7802C97.4595 24.8863 99.123 26.5843 101.162 26.5843C101.989 26.5843 102.804 26.2976 103.448 25.7684L105.831 23.8388H102.439V11.6657H105.842Z" fill="#0B848E"/>
<path d="M93.6273 12.8569H88.6367V22.8137C88.6367 24.9197 90.3002 26.6177 92.3394 26.6177C93.1658 26.6177 93.9815 26.3311 94.6254 25.8018L97.0295 23.8501H93.6166L93.6273 12.8569Z" fill="#0B848E"/>
<path d="M80.341 31.491C80.2766 31.2815 80.2229 31.0389 80.2229 30.7963C80.2229 29.7488 80.9205 28.6683 82.0581 28.6241C82.7772 28.6241 83.4534 29.3409 83.1958 30.0355C82.8953 30.7963 81.8972 31.3697 81.0815 31.3697C81.1459 31.8218 81.9616 32.5826 82.7772 32.5826C84.9559 32.5826 86.5872 30.9066 87.5639 29.8591C88.1005 29.2857 88.0039 29.837 87.6819 30.4986C87.0273 31.8879 85.5462 33.0567 83.9471 33.1449C82.5733 33.2331 80.8132 32.9685 80.341 31.491ZM81.0708 30.7963C82.0474 30.3442 82.6914 29.6937 82.4445 29.4401C81.9508 28.9329 81.0386 30.2009 81.0708 30.7963Z" fill="#0B848E"/>
<path d="M87.2967 38.9561C87.6401 37.1147 89.5076 34.8764 91.8472 33.0901L92.4268 32.6601L92.4053 32.5608L92.3624 30.6092V30.4879L92.298 30.532C92.0941 30.7966 91.815 31.0833 91.5038 31.3479C91.1067 31.6787 90.7096 31.9875 90.3232 32.1859C90.1193 32.2521 89.8617 32.3513 89.5612 32.3513C89.3573 32.3513 89.1212 32.3072 88.8851 32.1859C88.7885 32.1418 88.7241 32.0867 88.6812 32.0426C88.4021 31.8331 88.166 31.5905 88.005 31.3479C87.8011 31.0392 87.7045 30.7305 87.7045 30.4438C87.7045 30.113 87.8226 29.7712 88.048 29.5396C88.4451 29.2309 88.8851 28.9883 89.6471 28.9883C90.2481 28.9883 91.0208 29.1317 91.8794 29.4624L91.9009 29.4845L91.9438 29.4624C92.1048 29.2529 92.2014 29.0545 92.2658 28.9663C92.4053 28.7237 93.06 29.1096 93.0815 29.4404C93.1029 29.4845 93.221 30.6092 93.2425 31.9985V32.0977L93.2639 32.0757C93.8864 31.6898 96.9344 30.2674 97.3744 30.5761C97.6105 30.7415 97.5569 30.8187 97.3744 30.8628C96.4407 31.1495 94.9167 32.0095 93.9401 32.6049L93.2639 33.0791L93.2425 33.3658L93.1781 35.582C92.9956 38.5922 92.2443 41.7127 90.2266 42.1427C89.6471 42.264 88.8314 42.0214 88.1875 41.3598C87.5435 40.6762 87.1786 39.8161 87.2967 38.9561ZM92.3517 33.7076L91.8687 34.1376C89.8939 35.8136 88.4129 37.8314 88.1553 39.4302C88.0158 40.169 88.3592 40.7644 88.6382 41.1062C88.9817 41.437 89.4324 41.6355 89.7115 41.5583C91.7292 41.1283 92.4053 36.7949 92.3517 33.7076ZM89.6364 31.4913C89.9583 31.3259 90.3769 31.0392 90.7525 30.7084L91.2677 30.2122L91.5038 29.9476L91.3428 29.9035C90.9028 29.7822 90.5057 29.716 90.1622 29.716C89.5398 29.716 89.0675 29.9035 88.81 30.1681C88.6275 30.3776 88.5524 30.5982 88.5524 30.8407C88.5524 31.0833 88.649 31.3149 88.7885 31.5133L88.9495 31.6346C88.9495 31.6346 88.9924 31.6567 89.1319 31.6567C89.2929 31.6346 89.4539 31.5905 89.6364 31.4913Z" fill="#0B848E"/>
<path d="M101.923 30.9619C101.247 31.8881 100.185 32.8474 99.4119 32.8474C98.6499 32.8474 97.8986 32.252 97.5981 31.4911C97.4801 31.1603 97.3942 30.7524 97.3942 30.3444C97.3942 30.0136 97.4371 29.6718 97.5552 29.3631C97.6518 29.0984 97.7913 28.8669 98.0167 28.7897C98.1562 28.7456 98.4138 28.8338 98.5962 29.0323C98.7787 29.2197 98.7787 29.4402 98.6606 29.4844C98.564 29.5064 98.4567 29.6497 98.3387 29.8923C98.2957 30.1349 98.2206 30.4436 98.1991 30.7744C98.2421 31.1603 98.2957 31.844 98.6821 32.0866C99.6588 32.6599 101.698 29.8703 101.752 29.0984C101.752 29.0543 101.795 29.0323 101.816 28.9992C101.773 28.9771 101.795 28.9771 101.816 28.9551C101.837 28.911 101.934 28.8889 102.02 28.8889C102.256 28.8889 102.642 29.1756 102.675 29.4402C102.696 29.4844 102.814 30.4657 102.836 31.855V31.9542L102.857 31.9322C103.479 31.5463 106.431 30.0687 106.968 30.576C107.171 30.7634 107.15 30.8185 106.968 30.8626C106.034 31.1493 104.51 32.0094 103.533 32.6048L102.857 33.0789L102.836 33.3656L102.771 35.5819C102.589 38.5921 101.955 41.8559 99.9378 42.2859C99.3582 42.4072 98.4245 42.0212 97.7806 41.3597C97.1581 40.6871 96.7825 39.827 96.9005 38.978C97.244 37.1366 99.1114 34.7549 101.451 32.9687L102.031 32.5386L101.923 30.9619ZM102.02 33.6413L101.483 34.1374C99.6051 35.9017 98.0274 37.8313 97.7698 39.4301C97.6303 40.1688 97.9738 40.7642 98.2528 41.1061C98.5962 41.4369 99.047 41.6353 99.326 41.5581C101.086 41.2053 102.041 36.9822 102.02 33.6413Z" fill="#0B848E"/>
<path d="M106.807 37.456C106.807 32.0421 106.85 27.9623 107.043 26.6171C107.065 26.4517 107.279 26.4517 107.483 26.573C107.719 26.6943 107.88 26.9038 107.859 27.0692C107.816 27.6646 107.762 28.7893 107.698 30.4102C108.299 29.4509 109.018 28.9547 109.694 28.7673C110.628 28.5026 112.087 29.0098 111.926 30.344C111.884 30.8953 111.551 31.4687 111.229 31.8767C112.688 31.5679 114.62 30.3992 115.436 29.6604C115.715 29.4509 115.436 30.2779 115.2 30.5425C114.019 31.7885 112.227 32.7367 110.456 32.6706H110.338C109.576 32.8801 108.621 32.6485 108.202 32.3839L108.02 32.2626C107.762 33.3652 107.719 34.964 107.644 37.445C107.687 38.8784 107.687 40.2346 107.848 41.4255C107.827 41.8334 107.054 41.5908 107.011 41.1388C106.914 40.1354 106.872 38.7461 106.807 37.456ZM110.896 29.4619C109.855 28.8444 108.202 30.9615 108.063 31.6341V31.7003C108.32 31.8436 109.437 31.8877 109.801 31.9428C110.617 31.7113 111.637 29.914 110.896 29.4619Z" fill="#0B848E"/>
<path d="M115.307 31.9431C115.307 30.5538 115.328 29.2748 115.35 28.3375C115.371 27.2128 115.414 25.8125 115.489 24.357C113.557 24.5224 111.754 24.6658 109.887 24.9966C109.447 25.0627 108.953 24.4452 109.35 24.357C111.003 24.0483 112.645 23.8608 115.511 23.6183C115.607 21.7548 115.715 19.8693 115.811 18.3918C115.79 18.0059 116.691 18.1492 116.766 18.6344C116.605 19.8252 116.466 21.6887 116.369 23.5521C116.573 23.5521 116.809 23.5301 117.045 23.508C119.02 23.3647 121.671 23.1552 123.946 23.1552C125.266 23.1552 126.479 23.2213 127.316 23.4198C127.52 23.519 127.756 23.7506 127.853 23.8939C127.874 24.0814 127.756 24.1806 127.574 24.1586C126.533 23.9491 125.224 23.8719 123.839 23.8719C121.349 23.8719 118.634 24.1144 116.874 24.2578C116.691 24.2798 116.53 24.3019 116.337 24.3019L116.176 28.3155C116.155 29.8481 116.08 32.0865 116.08 34.2586C116.08 36.6955 116.176 39.033 116.477 40.1577C116.541 40.709 115.822 40.2018 115.661 39.7056C115.393 38.8456 115.307 35.1407 115.307 31.9431Z" fill="#0B848E"/>
<path d="M80.341 31.491C80.2766 31.2815 80.2229 31.0389 80.2229 30.7963C80.2229 29.7488 80.9205 28.6683 82.0581 28.6241C82.7772 28.6241 83.4534 29.3409 83.1958 30.0355C82.8953 30.7963 81.8972 31.3697 81.0815 31.3697C81.1459 31.8218 81.9616 32.5826 82.7772 32.5826C84.9559 32.5826 86.5872 30.9066 87.5639 29.8591C88.1005 29.2857 88.0039 29.837 87.6819 30.4986C87.0273 31.8879 85.5462 33.0567 83.9471 33.1449C82.5733 33.2331 80.8132 32.9685 80.341 31.491ZM81.0708 30.7963C82.0474 30.3442 82.6914 29.6937 82.4445 29.4401C81.9508 28.9329 81.0386 30.2009 81.0708 30.7963Z" fill="#0B848E"/>
<path d="M87.2967 38.9561C87.6401 37.1147 89.5076 34.8764 91.8472 33.0901L92.4268 32.6601L92.4053 32.5608L92.3624 30.6092V30.4879L92.298 30.532C92.0941 30.7966 91.815 31.0833 91.5038 31.3479C91.1067 31.6787 90.7096 31.9875 90.3232 32.1859C90.1193 32.2521 89.8617 32.3513 89.5612 32.3513C89.3573 32.3513 89.1212 32.3072 88.8851 32.1859C88.7885 32.1418 88.7241 32.0867 88.6812 32.0426C88.4021 31.8331 88.166 31.5905 88.005 31.3479C87.8011 31.0392 87.7045 30.7305 87.7045 30.4438C87.7045 30.113 87.8226 29.7712 88.048 29.5396C88.4451 29.2309 88.8851 28.9883 89.6471 28.9883C90.2481 28.9883 91.0208 29.1317 91.8794 29.4624L91.9009 29.4845L91.9438 29.4624C92.1048 29.2529 92.2014 29.0545 92.2658 28.9663C92.4053 28.7237 93.06 29.1096 93.0815 29.4404C93.1029 29.4845 93.221 30.6092 93.2425 31.9985V32.0977L93.2639 32.0757C93.8864 31.6898 96.9344 30.2674 97.3744 30.5761C97.6105 30.7415 97.5569 30.8187 97.3744 30.8628C96.4407 31.1495 94.9167 32.0095 93.9401 32.6049L93.2639 33.0791L93.2425 33.3658L93.1781 35.582C92.9956 38.5922 92.2443 41.7127 90.2266 42.1427C89.6471 42.264 88.8314 42.0214 88.1875 41.3598C87.5435 40.6762 87.1786 39.8161 87.2967 38.9561ZM92.3517 33.7076L91.8687 34.1376C89.8939 35.8136 88.4129 37.8314 88.1553 39.4302C88.0158 40.169 88.3592 40.7644 88.6382 41.1062C88.9817 41.437 89.4324 41.6355 89.7115 41.5583C91.7292 41.1283 92.4053 36.7949 92.3517 33.7076ZM89.6364 31.4913C89.9583 31.3259 90.3769 31.0392 90.7525 30.7084L91.2677 30.2122L91.5038 29.9476L91.3428 29.9035C90.9028 29.7822 90.5057 29.716 90.1622 29.716C89.5398 29.716 89.0675 29.9035 88.81 30.1681C88.6275 30.3776 88.5524 30.5982 88.5524 30.8407C88.5524 31.0833 88.649 31.3149 88.7885 31.5133L88.9495 31.6346C88.9495 31.6346 88.9924 31.6567 89.1319 31.6567C89.2929 31.6346 89.4539 31.5905 89.6364 31.4913Z" fill="#0B848E"/>
<path d="M101.923 30.9619C101.247 31.8881 100.185 32.8474 99.4119 32.8474C98.6499 32.8474 97.8986 32.252 97.5981 31.4911C97.4801 31.1603 97.3942 30.7524 97.3942 30.3444C97.3942 30.0136 97.4371 29.6718 97.5552 29.3631C97.6518 29.0984 97.7913 28.8669 98.0167 28.7897C98.1562 28.7456 98.4138 28.8338 98.5962 29.0323C98.7787 29.2197 98.7787 29.4402 98.6606 29.4844C98.564 29.5064 98.4567 29.6497 98.3387 29.8923C98.2957 30.1349 98.2206 30.4436 98.1991 30.7744C98.2421 31.1603 98.2957 31.844 98.6821 32.0866C99.6588 32.6599 101.698 29.8703 101.752 29.0984C101.752 29.0543 101.795 29.0323 101.816 28.9992C101.773 28.9771 101.795 28.9771 101.816 28.9551C101.837 28.911 101.934 28.8889 102.02 28.8889C102.256 28.8889 102.642 29.1756 102.675 29.4402C102.696 29.4844 102.814 30.4657 102.836 31.855V31.9542L102.857 31.9322C103.479 31.5463 106.431 30.0687 106.968 30.576C107.171 30.7634 107.15 30.8185 106.968 30.8626C106.034 31.1493 104.51 32.0094 103.533 32.6048L102.857 33.0789L102.836 33.3656L102.771 35.5819C102.589 38.5921 101.955 41.8559 99.9378 42.2859C99.3582 42.4072 98.4245 42.0212 97.7806 41.3597C97.1581 40.6871 96.7825 39.827 96.9005 38.978C97.244 37.1366 99.1114 34.7549 101.451 32.9687L102.031 32.5386L101.923 30.9619ZM102.02 33.6413L101.483 34.1374C99.6051 35.9017 98.0274 37.8313 97.7698 39.4301C97.6303 40.1688 97.9738 40.7642 98.2528 41.1061C98.5962 41.4369 99.047 41.6353 99.326 41.5581C101.086 41.2053 102.041 36.9822 102.02 33.6413Z" fill="#0B848E"/>
<path d="M106.807 37.456C106.807 32.0421 106.85 27.9623 107.043 26.6171C107.065 26.4517 107.279 26.4517 107.483 26.573C107.719 26.6943 107.88 26.9038 107.859 27.0692C107.816 27.6646 107.762 28.7893 107.698 30.4102C108.299 29.4509 109.018 28.9547 109.694 28.7673C110.628 28.5026 112.087 29.0098 111.926 30.344C111.884 30.8953 111.551 31.4687 111.229 31.8767C112.688 31.5679 114.62 30.3992 115.436 29.6604C115.715 29.4509 115.436 30.2779 115.2 30.5425C114.019 31.7885 112.227 32.7367 110.456 32.6706H110.338C109.576 32.8801 108.621 32.6485 108.202 32.3839L108.02 32.2626C107.762 33.3652 107.719 34.964 107.644 37.445C107.687 38.8784 107.687 40.2346 107.848 41.4255C107.827 41.8334 107.054 41.5908 107.011 41.1388C106.914 40.1354 106.872 38.7461 106.807 37.456ZM110.896 29.4619C109.855 28.8444 108.202 30.9615 108.063 31.6341V31.7003C108.32 31.8436 109.437 31.8877 109.801 31.9428C110.617 31.7113 111.637 29.914 110.896 29.4619Z" fill="#0B848E"/>
<path d="M115.307 31.9431C115.307 30.5538 115.328 29.2748 115.35 28.3375C115.371 27.2128 115.414 25.8125 115.489 24.357C113.557 24.5224 111.754 24.6658 109.887 24.9966C109.447 25.0627 108.953 24.4452 109.35 24.357C111.003 24.0483 112.645 23.8608 115.511 23.6183C115.607 21.7548 115.715 19.8693 115.811 18.3918C115.79 18.0059 116.691 18.1492 116.766 18.6344C116.605 19.8252 116.466 21.6887 116.369 23.5521C116.573 23.5521 116.809 23.5301 117.045 23.508C119.02 23.3647 121.671 23.1552 123.946 23.1552C125.266 23.1552 126.479 23.2213 127.316 23.4198C127.52 23.519 127.756 23.7506 127.853 23.8939C127.874 24.0814 127.756 24.1806 127.574 24.1586C126.533 23.9491 125.224 23.8719 123.839 23.8719C121.349 23.8719 118.634 24.1144 116.874 24.2578C116.691 24.2798 116.53 24.3019 116.337 24.3019L116.176 28.3155C116.155 29.8481 116.08 32.0865 116.08 34.2586C116.08 36.6955 116.176 39.033 116.477 40.1577C116.541 40.709 115.822 40.2018 115.661 39.7056C115.393 38.8456 115.307 35.1407 115.307 31.9431Z" fill="#0B848E"/>
<path d="M77.5187 31.1825H49.593C49.4534 30.4658 48.8309 29.9255 48.0904 29.9255C47.2426 29.9255 46.5664 30.6312 46.5664 31.4913C46.5664 32.3623 47.2533 33.057 48.0904 33.057C48.7773 33.057 49.3568 32.5939 49.55 31.9544H77.508C77.7226 31.9544 77.8944 31.778 77.8944 31.5574C77.9051 31.359 77.7334 31.1825 77.5187 31.1825Z" fill="#0B848E"/>
</svg>
