<svg width="17" height="17" viewBox="0 0 17 17" fill="none" xmlns="http://www.w3.org/2000/svg">
<g clip-path="url(#clip0_69_2192)">
<path fill-rule="evenodd" clip-rule="evenodd" d="M11.7244 15.6775C10.7044 15.64 7.81367 15.2405 4.78625 12.2138C1.75954 9.18637 1.36075 6.29637 1.3225 5.27567C1.26583 3.72017 2.45725 2.20929 3.83354 1.61925C3.99927 1.54769 4.18077 1.52044 4.36021 1.54018C4.53965 1.55993 4.71087 1.62599 4.85708 1.73188C5.99042 2.55779 6.77242 3.80729 7.44392 4.78975C7.59166 5.0056 7.65483 5.26826 7.62139 5.52769C7.58795 5.78712 7.46024 6.02517 7.26258 6.1965L5.88062 7.22287C5.81386 7.27109 5.76686 7.3419 5.74836 7.42215C5.72986 7.5024 5.74112 7.58663 5.78004 7.65921C6.09312 8.228 6.64987 9.07517 7.28737 9.71267C7.92558 10.3502 8.81242 10.9438 9.42087 11.2923C9.49716 11.3351 9.58696 11.347 9.67181 11.3257C9.75665 11.3044 9.83009 11.2513 9.87704 11.1775L10.7766 9.80829C10.942 9.5886 11.186 9.44142 11.4575 9.39759C11.7289 9.35375 12.0068 9.41666 12.233 9.57313C13.2296 10.263 14.3927 11.0316 15.2441 12.1217C15.3586 12.269 15.4314 12.4443 15.4549 12.6293C15.4785 12.8144 15.4519 13.0023 15.378 13.1736C14.7851 14.557 13.2848 15.7349 11.7244 15.6775Z" fill="#095896"/>
</g>
<defs>
<clipPath id="clip0_69_2192">
<rect width="17" height="17" fill="white"/>
</clipPath>
</defs>
</svg>
