<svg width="16" height="17" viewBox="0 0 16 17" fill="none" xmlns="http://www.w3.org/2000/svg">
<path d="M12.2797 2.73927H10.9871V2.05445C10.9871 1.87282 10.919 1.69864 10.7978 1.57021C10.6766 1.44178 10.5122 1.36963 10.3408 1.36963C10.1694 1.36963 10.005 1.44178 9.88377 1.57021C9.76256 1.69864 9.69447 1.87282 9.69447 2.05445V2.73927H5.81663V2.05445C5.81663 1.87282 5.74854 1.69864 5.62733 1.57021C5.50612 1.44178 5.34173 1.36963 5.17032 1.36963C4.99891 1.36963 4.83452 1.44178 4.71331 1.57021C4.59211 1.69864 4.52401 1.87282 4.52401 2.05445V2.73927H3.2314C2.71717 2.73927 2.224 2.95572 1.86038 3.341C1.49676 3.72629 1.29248 4.24885 1.29248 4.79372V13.0115C1.29248 13.5564 1.49676 14.079 1.86038 14.4643C2.224 14.8495 2.71717 15.066 3.2314 15.066H12.2797C12.7939 15.066 13.2871 14.8495 13.6507 14.4643C14.0143 14.079 14.2186 13.5564 14.2186 13.0115V4.79372C14.2186 4.24885 14.0143 3.72629 13.6507 3.341C13.2871 2.95572 12.7939 2.73927 12.2797 2.73927V2.73927ZM12.926 13.0115C12.926 13.1932 12.8579 13.3674 12.7367 13.4958C12.6155 13.6242 12.4511 13.6964 12.2797 13.6964H3.2314C3.05999 13.6964 2.8956 13.6242 2.77439 13.4958C2.65319 13.3674 2.58509 13.1932 2.58509 13.0115V8.21781H12.926V13.0115ZM12.926 6.84818H2.58509V4.79372C2.58509 4.6121 2.65319 4.43791 2.77439 4.30948C2.8956 4.18105 3.05999 4.1089 3.2314 4.1089H4.52401V4.79372C4.52401 4.97535 4.59211 5.14953 4.71331 5.27796C4.83452 5.40639 4.99891 5.47854 5.17032 5.47854C5.34173 5.47854 5.50612 5.40639 5.62733 5.27796C5.74854 5.14953 5.81663 4.97535 5.81663 4.79372V4.1089H9.69447V4.79372C9.69447 4.97535 9.76256 5.14953 9.88377 5.27796C10.005 5.40639 10.1694 5.47854 10.3408 5.47854C10.5122 5.47854 10.6766 5.40639 10.7978 5.27796C10.919 5.14953 10.9871 4.97535 10.9871 4.79372V4.1089H12.2797C12.4511 4.1089 12.6155 4.18105 12.7367 4.30948C12.8579 4.43791 12.926 4.6121 12.926 4.79372V6.84818Z" fill="#095896"/>
</svg>
