<svg width="14" height="14" viewBox="0 0 14 14" fill="none" xmlns="http://www.w3.org/2000/svg">
<g clip-path="url(#clip0_47_627)">
<path fill-rule="evenodd" clip-rule="evenodd" d="M5.25 0.875C4.84389 0.875 4.45441 1.03633 4.16724 1.32349C3.88008 1.61066 3.71875 2.00014 3.71875 2.40625V3.5H2.625C2.16087 3.5 1.71575 3.68437 1.38756 4.01256C1.05937 4.34075 0.875 4.78587 0.875 5.25V11.375C0.875 11.8391 1.05937 12.2842 1.38756 12.6124C1.71575 12.9406 2.16087 13.125 2.625 13.125H11.375C11.8391 13.125 12.2842 12.9406 12.6124 12.6124C12.9406 12.2842 13.125 11.8391 13.125 11.375V5.25C13.125 4.78587 12.9406 4.34075 12.6124 4.01256C12.2842 3.68437 11.8391 3.5 11.375 3.5H10.2812V2.40625C10.2812 2.00014 10.1199 1.61066 9.83276 1.32349C9.54559 1.03633 9.15611 0.875 8.75 0.875H5.25ZM8.96875 3.5V2.40625C8.96875 2.34823 8.9457 2.29259 8.90468 2.25157C8.86366 2.21055 8.80802 2.1875 8.75 2.1875H5.25C5.19198 2.1875 5.13634 2.21055 5.09532 2.25157C5.0543 2.29259 5.03125 2.34823 5.03125 2.40625V3.5H8.96875ZM2.625 4.8125H11.375C11.491 4.8125 11.6023 4.85859 11.6844 4.94064C11.7664 5.02269 11.8125 5.13397 11.8125 5.25V6.125H2.1875V5.25C2.1875 5.13397 2.23359 5.02269 2.31564 4.94064C2.39769 4.85859 2.50897 4.8125 2.625 4.8125ZM2.1875 7.4375V11.375C2.1875 11.491 2.23359 11.6023 2.31564 11.6844C2.39769 11.7664 2.50897 11.8125 2.625 11.8125H11.375C11.491 11.8125 11.6023 11.7664 11.6844 11.6844C11.7664 11.6023 11.8125 11.491 11.8125 11.375V7.4375H7.875V8.75H6.125V7.4375H2.1875Z" fill="#095896"/>
</g>
<defs>
<clipPath id="clip0_47_627">
<rect width="14" height="14" fill="white"/>
</clipPath>
</defs>
</svg>
