<svg width="14" height="14" viewBox="0 0 14 14" fill="none" xmlns="http://www.w3.org/2000/svg">
<g clip-path="url(#clip0_47_629)">
<path d="M6.99984 12.8333C10.2215 12.8333 12.8332 10.2216 12.8332 6.99996C12.8332 3.7783 10.2215 1.16663 6.99984 1.16663C3.77818 1.16663 1.1665 3.7783 1.1665 6.99996C1.1665 10.2216 3.77818 12.8333 6.99984 12.8333Z" stroke="#095896" stroke-linecap="round"/>
<path d="M4.6665 5.27916V5.22083M9.33317 5.27916V5.22083" stroke="#095896" stroke-width="3" stroke-linecap="round"/>
<path d="M6.99984 10.5C7.61868 10.5 8.21217 10.2541 8.64975 9.81654C9.08734 9.37896 9.33317 8.78546 9.33317 8.16663H4.6665C4.6665 8.78546 4.91234 9.37896 5.34992 9.81654C5.78751 10.2541 6.381 10.5 6.99984 10.5Z" stroke="#095896" stroke-linecap="round" stroke-linejoin="round"/>
</g>
<defs>
<clipPath id="clip0_47_629">
<rect width="14" height="14" fill="white"/>
</clipPath>
</defs>
</svg>
