<svg width="17" height="17" viewBox="0 0 17 17" fill="none" xmlns="http://www.w3.org/2000/svg">
<path d="M10.9098 14.875V9.94075H12.5623L12.8095 8.02258H10.9098V6.79858C10.9098 6.24325 11.0642 5.86429 11.8603 5.86429H12.8761V4.14871C12.3844 4.09654 11.8901 4.07123 11.3957 4.07292C9.93154 4.07292 8.92925 4.96683 8.92925 6.60875V8.02258H7.27317V9.94075H8.92925V14.875H2.83333C2.64547 14.875 2.4653 14.8004 2.33247 14.6675C2.19963 14.5347 2.125 14.3545 2.125 14.1667V2.83333C2.125 2.64547 2.19963 2.4653 2.33247 2.33247C2.4653 2.19963 2.64547 2.125 2.83333 2.125H14.1667C14.3545 2.125 14.5347 2.19963 14.6675 2.33247C14.8004 2.4653 14.875 2.64547 14.875 2.83333V14.1667C14.875 14.3545 14.8004 14.5347 14.6675 14.6675C14.5347 14.8004 14.3545 14.875 14.1667 14.875H10.9098V14.875Z" fill="#095896"/>
</svg>
