<svg width="17" height="87" viewBox="0 0 17 87" fill="none" xmlns="http://www.w3.org/2000/svg">
<g clip-path="url(#clip0_47_643)">
<path fill-rule="evenodd" clip-rule="evenodd" d="M11.7241 15.6775C10.7041 15.64 7.81342 15.2405 4.786 12.2138C1.7593 9.18637 1.3605 6.29637 1.32225 5.27567C1.26559 3.72017 2.457 2.20929 3.8333 1.61925C3.99903 1.54769 4.18052 1.52044 4.35996 1.54018C4.53941 1.55993 4.71063 1.62599 4.85684 1.73188C5.99017 2.55779 6.77217 3.80729 7.44367 4.78975C7.59142 5.0056 7.65459 5.26826 7.62115 5.52769C7.58771 5.78712 7.45999 6.02517 7.26234 6.1965L5.88038 7.22287C5.81361 7.27109 5.76662 7.3419 5.74812 7.42215C5.72962 7.5024 5.74087 7.58663 5.7798 7.65921C6.09288 8.228 6.64963 9.07517 7.28713 9.71267C7.92534 10.3502 8.81217 10.9438 9.42063 11.2923C9.49692 11.3351 9.58672 11.347 9.67156 11.3257C9.75641 11.3044 9.82985 11.2513 9.8768 11.1775L10.7764 9.80829C10.9418 9.5886 11.1857 9.44142 11.4572 9.39759C11.7287 9.35375 12.0066 9.41666 12.2327 9.57313C13.2293 10.263 14.3924 11.0316 15.2438 12.1217C15.3583 12.269 15.4311 12.4443 15.4547 12.6293C15.4783 12.8144 15.4517 13.0023 15.3777 13.1736C14.7848 14.557 13.2846 15.7349 11.7241 15.6775Z" fill="#095896"/>
</g>
<path d="M14.1665 37.8333H2.83317C2.054 37.8333 1.42359 38.4708 1.42359 39.25L1.4165 47.75C1.4165 48.5291 2.054 49.1666 2.83317 49.1666H14.1665C14.9457 49.1666 15.5832 48.5291 15.5832 47.75V39.25C15.5832 38.4708 14.9457 37.8333 14.1665 37.8333ZM14.1665 40.6666L8.49984 44.2083L2.83317 40.6666V39.25L8.49984 42.7916L14.1665 39.25V40.6666Z" fill="#095896"/>
<path d="M10.9098 84.875V79.9408H12.5623L12.8095 78.0226H10.9098V76.7986C10.9098 76.2432 11.0642 75.8643 11.8603 75.8643H12.8761V74.1487C12.3844 74.0965 11.8901 74.0712 11.3957 74.0729C9.93154 74.0729 8.92925 74.9668 8.92925 76.6087V78.0226H7.27317V79.9408H8.92925V84.875H2.83333C2.64547 84.875 2.4653 84.8004 2.33247 84.6675C2.19963 84.5347 2.125 84.3545 2.125 84.1667V72.8333C2.125 72.6455 2.19963 72.4653 2.33247 72.3325C2.4653 72.1996 2.64547 72.125 2.83333 72.125H14.1667C14.3545 72.125 14.5347 72.1996 14.6675 72.3325C14.8004 72.4653 14.875 72.6455 14.875 72.8333V84.1667C14.875 84.3545 14.8004 84.5347 14.6675 84.6675C14.5347 84.8004 14.3545 84.875 14.1667 84.875H10.9098V84.875Z" fill="#095896"/>
<defs>
<clipPath id="clip0_47_643">
<rect width="17" height="17" fill="white"/>
</clipPath>
</defs>
</svg>
