<svg width="17" height="17" viewBox="0 0 17 17" fill="none" xmlns="http://www.w3.org/2000/svg">
<path d="M8.49992 8.50002C8.8895 8.50002 9.22313 8.36119 9.50079 8.08352C9.77799 7.80633 9.91659 7.47294 9.91659 7.08335C9.91659 6.69377 9.77799 6.36015 9.50079 6.08248C9.22313 5.80528 8.8895 5.66669 8.49992 5.66669C8.11034 5.66669 7.77695 5.80528 7.49975 6.08248C7.22209 6.36015 7.08325 6.69377 7.08325 7.08335C7.08325 7.47294 7.22209 7.80633 7.49975 8.08352C7.77695 8.36119 8.11034 8.50002 8.49992 8.50002ZM8.49992 15.3177C8.40547 15.3177 8.31103 15.3 8.21659 15.2646C8.12214 15.2292 8.0395 15.182 7.96867 15.1229C6.24506 13.6 4.95825 12.1864 4.10825 10.8821C3.25825 9.5774 2.83325 8.35835 2.83325 7.22502C2.83325 5.45419 3.40299 4.04342 4.54246 2.99273C5.68146 1.94203 7.00061 1.41669 8.49992 1.41669C9.99922 1.41669 11.3184 1.94203 12.4574 2.99273C13.5968 4.04342 14.1666 5.45419 14.1666 7.22502C14.1666 8.35835 13.7416 9.5774 12.8916 10.8821C12.0416 12.1864 10.7548 13.6 9.03117 15.1229C8.96034 15.182 8.8777 15.2292 8.78325 15.2646C8.68881 15.3 8.59436 15.3177 8.49992 15.3177Z" fill="#095896"/>
</svg>
