<svg width="37" height="37" viewBox="0 0 37 37" fill="none" xmlns="http://www.w3.org/2000/svg">
<path d="M18.5003 18.5C19.3482 18.5 20.0744 18.1979 20.6787 17.5935C21.282 16.9902 21.5837 16.2646 21.5837 15.4167C21.5837 14.5688 21.282 13.8427 20.6787 13.2383C20.0744 12.635 19.3482 12.3334 18.5003 12.3334C17.6524 12.3334 16.9268 12.635 16.3235 13.2383C15.7192 13.8427 15.417 14.5688 15.417 15.4167C15.417 16.2646 15.7192 16.9902 16.3235 17.5935C16.9268 18.1979 17.6524 18.5 18.5003 18.5ZM18.5003 33.3386C18.2948 33.3386 18.0892 33.3 17.8837 33.223C17.6781 33.1459 17.4982 33.0431 17.3441 32.9146C13.5927 29.6 10.792 26.5234 8.94199 23.6847C7.09199 20.8449 6.16699 18.1917 6.16699 15.725C6.16699 11.8709 7.40701 8.80039 9.88703 6.51358C12.366 4.22678 15.2371 3.08337 18.5003 3.08337C21.7635 3.08337 24.6346 4.22678 27.1136 6.51358C29.5936 8.80039 30.8337 11.8709 30.8337 15.725C30.8337 18.1917 29.9087 20.8449 28.0587 23.6847C26.2087 26.5234 23.408 29.6 19.6566 32.9146C19.5024 33.0431 19.3225 33.1459 19.117 33.223C18.9114 33.3 18.7059 33.3386 18.5003 33.3386Z" fill="#FF731D"/>
</svg>
