<svg width="17" height="17" viewBox="0 0 17 17" fill="none" xmlns="http://www.w3.org/2000/svg">
<path d="M8.50016 8.49996C8.88975 8.49996 9.22337 8.36113 9.50104 8.08346C9.77823 7.80627 9.91683 7.47288 9.91683 7.08329C9.91683 6.69371 9.77823 6.36008 9.50104 6.08242C9.22337 5.80522 8.88975 5.66663 8.50016 5.66663C8.11058 5.66663 7.77719 5.80522 7.5 6.08242C7.22233 6.36008 7.0835 6.69371 7.0835 7.08329C7.0835 7.47288 7.22233 7.80627 7.5 8.08346C7.77719 8.36113 8.11058 8.49996 8.50016 8.49996ZM8.50016 15.3177C8.40572 15.3177 8.31127 15.3 8.21683 15.2645C8.12239 15.2291 8.03975 15.1819 7.96891 15.1229C6.2453 13.6 4.9585 12.1864 4.1085 10.8821C3.2585 9.57733 2.8335 8.35829 2.8335 7.22496C2.8335 5.45413 3.40323 4.04336 4.5427 2.99267C5.6817 1.94197 7.00086 1.41663 8.50016 1.41663C9.99947 1.41663 11.3186 1.94197 12.4576 2.99267C13.5971 4.04336 14.1668 5.45413 14.1668 7.22496C14.1668 8.35829 13.7418 9.57733 12.8918 10.8821C12.0418 12.1864 10.755 13.6 9.03141 15.1229C8.96058 15.1819 8.87794 15.2291 8.7835 15.2645C8.68905 15.3 8.59461 15.3177 8.50016 15.3177Z" fill="#095896"/>
</svg>
