<svg width="20" height="19" viewBox="0 0 20 19" fill="none" xmlns="http://www.w3.org/2000/svg">
<path d="M10.0002 14.4677L6.54185 16.4469C6.38907 16.5392 6.22935 16.5788 6.06268 16.5656C5.89601 16.5524 5.75018 16.4997 5.62518 16.4073C5.50018 16.3149 5.40296 16.1996 5.33351 16.0613C5.26407 15.9225 5.25018 15.7674 5.29185 15.5958L6.20851 11.8552L3.14601 9.34168C3.00713 9.22293 2.92046 9.08755 2.88601 8.93555C2.85101 8.78408 2.86129 8.63578 2.91685 8.49064C2.9724 8.3455 3.05574 8.22675 3.16685 8.13439C3.27796 8.04203 3.43074 7.98265 3.62518 7.95626L7.66685 7.6198L9.22935 4.09689C9.29879 3.93855 9.40657 3.8198 9.55268 3.74064C9.69824 3.66147 9.8474 3.62189 10.0002 3.62189C10.153 3.62189 10.3024 3.66147 10.4485 3.74064C10.5941 3.8198 10.7016 3.93855 10.771 4.09689L12.3335 7.6198L16.3752 7.95626C16.5696 7.98265 16.7224 8.04203 16.8335 8.13439C16.9446 8.22675 17.028 8.3455 17.0835 8.49064C17.1391 8.63578 17.1496 8.78408 17.1152 8.93555C17.0802 9.08755 16.9932 9.22293 16.8543 9.34168L13.7918 11.8552L14.7085 15.5958C14.7502 15.7674 14.7363 15.9225 14.6668 16.0613C14.5974 16.1996 14.5002 16.3149 14.3752 16.4073C14.2502 16.4997 14.1043 16.5524 13.9377 16.5656C13.771 16.5788 13.6113 16.5392 13.4585 16.4469L10.0002 14.4677Z" fill="#F4D429"/>
</svg>
