<svg width="12" height="12" viewBox="0 0 12 12" fill="none" xmlns="http://www.w3.org/2000/svg">
<path d="M5.65 9.64999C5.55833 9.55833 5.51033 9.44166 5.506 9.29999C5.502 9.15833 5.54583 9.04166 5.6375 8.94999L8.0875 6.49999H2.5C2.35833 6.49999 2.2395 6.45199 2.1435 6.35599C2.04783 6.26033 2 6.14166 2 5.99999C2 5.85833 2.04783 5.73949 2.1435 5.64349C2.2395 5.54783 2.35833 5.49999 2.5 5.49999H8.0875L5.6375 3.04999C5.54583 2.95833 5.502 2.84166 5.506 2.69999C5.51033 2.55833 5.55833 2.44166 5.65 2.34999C5.74167 2.25833 5.85833 2.21249 6 2.21249C6.14167 2.21249 6.25833 2.25833 6.35 2.34999L9.65 5.64999C9.7 5.69166 9.7355 5.74366 9.7565 5.80599C9.77717 5.86866 9.7875 5.93333 9.7875 5.99999C9.7875 6.06666 9.77717 6.12916 9.7565 6.18749C9.7355 6.24583 9.7 6.29999 9.65 6.34999L6.35 9.64999C6.25833 9.74166 6.14167 9.78749 6 9.78749C5.85833 9.78749 5.74167 9.74166 5.65 9.64999V9.64999Z" fill="#FF731D"/>
</svg>
