<svg width="12" height="12" viewBox="0 0 12 12" fill="none" xmlns="http://www.w3.org/2000/svg">
<path d="M3 2.5005C2.99987 2.76572 2.89438 3.02002 2.70675 3.20746C2.51912 3.3949 2.26472 3.50013 1.9995 3.5C1.73428 3.49987 1.47998 3.39438 1.29254 3.20675C1.1051 3.01912 0.999868 2.76472 1 2.4995C1.00013 2.23428 1.10562 1.97998 1.29325 1.79254C1.48088 1.6051 1.73528 1.49987 2.0005 1.5C2.26572 1.50013 2.52002 1.60562 2.70746 1.79325C2.8949 1.98088 3.00013 2.23528 3 2.5005V2.5005ZM3.03 4.2405H1.03V10.5005H3.03V4.2405ZM6.19 4.2405H4.2V10.5005H6.17V7.2155C6.17 5.3855 8.555 5.2155 8.555 7.2155V10.5005H10.53V6.5355C10.53 3.4505 7 3.5655 6.17 5.0805L6.19 4.2405V4.2405Z" fill="#095896"/>
</svg>
