<svg width="16" height="16" viewBox="0 0 16 16" fill="none" xmlns="http://www.w3.org/2000/svg">
<path d="M3.99992 3.33397C3.99974 3.68759 3.8591 4.02666 3.60892 4.27658C3.35875 4.52651 3.01954 4.66681 2.66592 4.66664C2.3123 4.66646 1.97323 4.52581 1.7233 4.27564C1.47338 4.02547 1.33308 3.68626 1.33325 3.33264C1.33343 2.97901 1.47407 2.63995 1.72425 2.39002C1.97442 2.1401 2.31363 1.99979 2.66725 1.99997C3.02087 2.00015 3.35994 2.14079 3.60987 2.39097C3.85979 2.64114 4.0001 2.98035 3.99992 3.33397V3.33397ZM4.03992 5.65397H1.37325V14.0006H4.03992V5.65397ZM8.25325 5.65397H5.59992V14.0006H8.22658V9.62064C8.22658 7.18064 11.4066 6.95397 11.4066 9.62064V14.0006H14.0399V8.71397C14.0399 4.60064 9.33325 4.75397 8.22658 6.77397L8.25325 5.65397V5.65397Z" fill="#095896"/>
</svg>
