<svg width="9" height="9" viewBox="0 0 9 9" fill="none" xmlns="http://www.w3.org/2000/svg">
<path d="M4.7817 0.163367C4.88764 0.272278 4.94311 0.410891 4.94812 0.579208C4.95274 0.747525 4.90209 0.886139 4.79615 0.99505L1.96469 3.90594L8.42215 3.90594C8.58587 3.90594 8.72321 3.96297 8.83416 4.07703C8.94472 4.19069 9 4.33168 9 4.5C9 4.66832 8.94472 4.80951 8.83416 4.92356C8.72321 5.03723 8.58587 5.09406 8.42215 5.09406L1.96469 5.09406L4.79615 8.00495C4.90209 8.11386 4.95274 8.25248 4.94812 8.42079C4.94311 8.58911 4.88764 8.72772 4.7817 8.83663C4.67576 8.94554 4.54093 9 4.37721 9C4.21348 9 4.07865 8.94554 3.97271 8.83663L0.158909 4.91584C0.101124 4.86634 0.0600964 4.80455 0.0358268 4.73049C0.0119424 4.65604 -1.9161e-08 4.57921 -1.9161e-08 4.5C-1.9161e-08 4.42079 0.0119424 4.34653 0.0358268 4.27723C0.0600964 4.20792 0.101124 4.14356 0.158909 4.08416L3.97271 0.163367C4.07865 0.054456 4.21348 -3.66746e-07 4.37721 -3.66746e-07C4.54093 -3.66746e-07 4.67576 0.054456 4.7817 0.163367V0.163367Z" fill="#C6C6C6"/>
</svg>
