<svg width="10" height="8" viewBox="0 0 10 8" fill="none" xmlns="http://www.w3.org/2000/svg">
<path d="M4.687 7.85478C4.56929 7.75798 4.50765 7.63476 4.50209 7.48515C4.49695 7.33553 4.55324 7.21232 4.67095 7.11551L7.81701 4.52805H0.642055C0.460139 4.52805 0.307544 4.47736 0.18427 4.37597C0.0614233 4.27494 0 4.14961 0 4C0 3.85038 0.0614233 3.72488 0.18427 3.6235C0.307544 3.52246 0.460139 3.47195 0.642055 3.47195H7.81701L4.67095 0.884488C4.55324 0.787679 4.49695 0.664466 4.50209 0.514851C4.50765 0.365236 4.56929 0.242024 4.687 0.145214C4.80471 0.0484046 4.95452 0 5.13644 0C5.31835 0 5.46816 0.0484046 5.58587 0.145214L9.82343 3.63036C9.88764 3.67437 9.93323 3.72929 9.96019 3.79512C9.98673 3.8613 10 3.92959 10 4C10 4.07041 9.98673 4.13641 9.96019 4.19802C9.93323 4.25963 9.88764 4.31683 9.82343 4.36964L5.58587 7.85478C5.46816 7.95159 5.31835 8 5.13644 8C4.95452 8 4.80471 7.95159 4.687 7.85478V7.85478Z" fill="#FF731D"/>
</svg>
