<svg width="38" height="15" viewBox="0 0 38 15" fill="none" xmlns="http://www.w3.org/2000/svg">
<path d="M1.42109 1.27595C1.18346 1.13188 0.882075 1.20911 0.747916 1.44847C0.613757 1.68782 0.697631 1.99864 0.935253 2.14272L1.42109 1.27595ZM15.6007 5.41709L15.3722 4.96227L15.3722 4.96227L15.6007 5.41709ZM37.274 14.0292L35.6892 8.3751L31.7352 12.4713L37.274 14.0292ZM4.40177 3.96876C4.6523 4.0866 4.94308 3.9768 5.05125 3.7235C5.15942 3.47021 5.04402 3.16934 4.79349 3.05149L4.40177 3.96876ZM11.9274 5.36223C11.6556 5.33027 11.416 5.52935 11.3924 5.80688C11.3687 6.08441 11.5699 6.33531 11.8418 6.36726L11.9274 5.36223ZM18.6204 4.63346C18.8777 4.54799 19.0129 4.26309 18.9222 3.99712C18.8315 3.73115 18.5493 3.58482 18.292 3.67029L18.6204 4.63346ZM24.7807 3.8239C24.5211 3.73044 24.2425 3.86809 24.1584 4.13136C24.0743 4.39463 24.2166 4.68382 24.4762 4.77728L24.7807 3.8239ZM29.8678 7.89561C30.0899 8.06421 30.3984 8.02032 30.557 7.79756C30.7156 7.57481 30.6641 7.25755 30.442 7.08895L29.8678 7.89561ZM35.3403 11.3702C35.1399 11.175 34.8273 11.1787 34.6421 11.3786C34.4569 11.5784 34.4693 11.8987 34.6697 12.0939L35.3403 11.3702ZM1.17817 1.70933C0.935253 2.14272 0.935289 2.14274 0.93533 2.14276C0.93535 2.14278 0.935397 2.1428 0.935438 2.14283C0.935521 2.14288 0.935626 2.14294 0.935752 2.14302C0.936005 2.14317 0.936344 2.14338 0.936769 2.14363C0.937618 2.14415 0.938811 2.14487 0.940343 2.14579C0.943408 2.14764 0.947834 2.15031 0.953594 2.15376C0.965114 2.16068 0.981976 2.17076 1.00398 2.18383C1.04798 2.20996 1.11254 2.24801 1.19606 2.29648C1.36308 2.39341 1.60599 2.53204 1.91186 2.70026C2.52336 3.03655 3.38788 3.49183 4.40177 3.96876L4.79349 3.05149C3.80278 2.58547 2.95756 2.14035 2.36048 1.81199C2.06207 1.64787 1.82598 1.51311 1.66507 1.41973C1.58462 1.37304 1.52299 1.33671 1.48178 1.31224C1.46118 1.30001 1.44569 1.29074 1.4355 1.28463C1.43041 1.28157 1.42665 1.27931 1.42424 1.27785C1.42303 1.27712 1.42216 1.2766 1.42164 1.27628C1.42137 1.27612 1.4212 1.27601 1.4211 1.27596C1.42106 1.27593 1.42103 1.27592 1.42103 1.27591C1.42103 1.27591 1.42104 1.27592 1.42104 1.27592C1.42106 1.27593 1.42109 1.27595 1.17817 1.70933ZM11.8418 6.36726C13.2819 6.53656 14.6874 6.44904 15.8293 5.8719L15.3722 4.96227C14.4668 5.41988 13.2776 5.52095 11.9274 5.36223L11.8418 6.36726ZM15.8293 5.8719C16.7583 5.40235 17.6583 4.95295 18.6204 4.63346L18.292 3.67029C17.2539 4.015 16.2947 4.49605 15.3722 4.96227L15.8293 5.8719ZM24.4762 4.77728C26.0032 5.32705 27.7705 6.30341 29.8678 7.89561L30.442 7.08895C28.2873 5.45314 26.4294 4.41748 24.7807 3.8239L24.4762 4.77728ZM1.664 0.842564C1.18876 0.554418 0.58598 0.708896 0.317662 1.1876C0.0493441 1.6663 0.217092 2.28796 0.692337 2.5761L1.664 0.842564ZM15.6007 5.41709L15.1436 4.50746L15.1436 4.50746L15.6007 5.41709ZM37.274 14.0292L34.1044 2.72102L26.1963 10.9135L37.274 14.0292ZM4.20591 4.42739C4.70696 4.66308 5.28852 4.44347 5.50486 3.93688C5.7212 3.43029 5.4904 2.82855 4.98935 2.59286L4.20591 4.42739ZM11.9703 4.85971C11.4266 4.79579 10.9474 5.19395 10.9001 5.74901C10.8528 6.30408 11.2552 6.80587 11.799 6.86978L11.9703 4.85971ZM18.7846 5.11504C19.2993 4.94411 19.5696 4.37431 19.3882 3.84236C19.2068 3.31042 18.6425 3.01777 18.1278 3.1887L18.7846 5.11504ZM24.9329 3.34721C24.4137 3.16028 23.8565 3.4356 23.6883 3.96214C23.5201 4.48868 23.8047 5.06705 24.3239 5.25398L24.9329 3.34721ZM29.5807 8.29894C30.0249 8.63615 30.642 8.54835 30.9591 8.10284C31.2762 7.65734 31.1733 7.02282 30.7291 6.68562L29.5807 8.29894ZM35.6756 11.0084C35.2748 10.6179 34.6496 10.6254 34.2792 11.0251C33.9088 11.4247 33.9335 12.0653 34.3344 12.4557L35.6756 11.0084ZM1.17817 1.70933C0.692337 2.5761 0.692403 2.57614 0.692473 2.57618C0.692504 2.5762 0.69258 2.57625 0.692642 2.57629C0.692765 2.57636 0.69291 2.57645 0.693077 2.57655C0.69341 2.57675 0.693829 2.57701 0.694335 2.57731C0.695346 2.57792 0.696701 2.57874 0.698397 2.57976C0.701789 2.58181 0.706545 2.58467 0.712639 2.58833C0.724828 2.59565 0.742374 2.60614 0.765074 2.61962C0.810471 2.64658 0.876504 2.68549 0.961556 2.73485C1.13162 2.83355 1.37794 2.97412 1.68755 3.14439C2.30626 3.48465 3.18042 3.94501 4.20591 4.42739L4.98935 2.59286C4.01023 2.13229 3.17467 1.69225 2.58479 1.36785C2.29011 1.20579 2.05743 1.07297 1.89957 0.981353C1.82066 0.935556 1.76049 0.900088 1.72068 0.876449C1.70078 0.864631 1.68597 0.855772 1.67646 0.850061C1.6717 0.847206 1.66827 0.845137 1.66618 0.84388C1.66514 0.843251 1.66443 0.842825 1.66407 0.842605C1.66389 0.842495 1.66379 0.842436 1.66378 0.842429C1.66377 0.842425 1.66379 0.842435 1.66383 0.842457C1.66384 0.842468 1.66389 0.842495 1.6639 0.842501C1.66395 0.84253 1.664 0.842564 1.17817 1.70933ZM11.799 6.86978C13.284 7.04436 14.7977 6.96362 16.0578 6.32672L15.1436 4.50746C14.3565 4.9053 13.2754 5.01314 11.9703 4.85971L11.799 6.86978ZM16.0578 6.32672C16.9902 5.8555 17.8605 5.42193 18.7846 5.11504L18.1278 3.1887C17.0518 3.54602 16.0628 4.04289 15.1436 4.50746L16.0578 6.32672ZM24.3239 5.25398C25.7901 5.78183 27.5122 6.72855 29.5807 8.29894L30.7291 6.68562C28.5457 5.02801 26.6425 3.96269 24.9329 3.34721L24.3239 5.25398Z" fill="#095896"/>
</svg>
