<svg width="20" height="19" viewBox="0 0 20 19" fill="none" xmlns="http://www.w3.org/2000/svg">
<path d="M10.0001 14.4677L6.54173 16.4468C6.38895 16.5392 6.22923 16.5788 6.06256 16.5656C5.89589 16.5524 5.75006 16.4996 5.62506 16.4072C5.50006 16.3149 5.40284 16.1996 5.33339 16.0613C5.26395 15.9225 5.25006 15.7673 5.29173 15.5958L6.20839 11.8552L3.14589 9.34162C3.007 9.22287 2.92034 9.08749 2.88589 8.93549C2.85089 8.78402 2.86117 8.63572 2.91673 8.49058C2.97228 8.34544 3.05561 8.22669 3.16673 8.13433C3.27784 8.04196 3.43061 7.98259 3.62506 7.9562L7.66673 7.61974L9.22923 4.09683C9.29867 3.93849 9.40645 3.81974 9.55256 3.74058C9.69811 3.66141 9.84728 3.62183 10.0001 3.62183C10.1528 3.62183 10.3023 3.66141 10.4484 3.74058C10.5939 3.81974 10.7014 3.93849 10.7709 4.09683L12.3334 7.61974L16.3751 7.9562C16.5695 7.98259 16.7223 8.04196 16.8334 8.13433C16.9445 8.22669 17.0278 8.34544 17.0834 8.49058C17.1389 8.63572 17.1495 8.78402 17.1151 8.93549C17.0801 9.08749 16.9931 9.22287 16.8542 9.34162L13.7917 11.8552L14.7084 15.5958C14.7501 15.7673 14.7362 15.9225 14.6667 16.0613C14.5973 16.1996 14.5001 16.3149 14.3751 16.4072C14.2501 16.4996 14.1042 16.5524 13.9376 16.5656C13.7709 16.5788 13.6112 16.5392 13.4584 16.4468L10.0001 14.4677Z" fill="#F4D429"/>
</svg>
