<svg width="14" height="14" viewBox="0 0 14 14" fill="none" xmlns="http://www.w3.org/2000/svg">
<path d="M6.83333 12.6667C10.055 12.6667 12.6667 10.055 12.6667 6.83333C12.6667 3.61167 10.055 1 6.83333 1C3.61167 1 1 3.61167 1 6.83333C1 10.055 3.61167 12.6667 6.83333 12.6667Z" stroke="#095896" stroke-linecap="round"/>
<path d="M4.5 5.1125V5.05416M9.16667 5.1125V5.05416" stroke="#095896" stroke-width="3" stroke-linecap="round"/>
<path d="M6.83333 10.3333C7.45217 10.3333 8.04566 10.0875 8.48325 9.64992C8.92083 9.21233 9.16667 8.61884 9.16667 8H4.5C4.5 8.61884 4.74583 9.21233 5.18342 9.64992C5.621 10.0875 6.21449 10.3333 6.83333 10.3333Z" stroke="#095896" stroke-linecap="round" stroke-linejoin="round"/>
</svg>
