<svg width="9" height="9" viewBox="0 0 9 9" fill="none" xmlns="http://www.w3.org/2000/svg">
<path d="M4.2183 8.83663C4.11236 8.72772 4.05689 8.58911 4.05188 8.42079C4.04726 8.25248 4.09791 8.11386 4.20385 8.00495L7.03531 5.09406H0.577849C0.414125 5.09406 0.27679 5.03703 0.165843 4.92297C0.055281 4.80931 0 4.66832 0 4.5C0 4.33168 0.055281 4.19049 0.165843 4.07644C0.27679 3.96277 0.414125 3.90594 0.577849 3.90594H7.03531L4.20385 0.995049C4.09791 0.886138 4.04726 0.747525 4.05188 0.579208C4.05689 0.410891 4.11236 0.272277 4.2183 0.163366C4.32424 0.0544552 4.45907 0 4.62279 0C4.78652 0 4.92135 0.0544552 5.02729 0.163366L8.84109 4.08416C8.89888 4.13366 8.9399 4.19545 8.96417 4.26951C8.98806 4.34396 9 4.42079 9 4.5C9 4.57921 8.98806 4.65347 8.96417 4.72277C8.9399 4.79208 8.89888 4.85644 8.84109 4.91584L5.02729 8.83663C4.92135 8.94554 4.78652 9 4.62279 9C4.45907 9 4.32424 8.94554 4.2183 8.83663V8.83663Z" fill="#FF731D"/>
</svg>
