<svg width="17" height="17" viewBox="0 0 17 17" fill="none" xmlns="http://www.w3.org/2000/svg">
<path d="M15.5785 6.44219C15.2965 6.15273 15.007 5.84844 14.8957 5.58867C14.7844 5.32891 14.7918 4.94297 14.7844 4.54961C14.777 3.82969 14.7621 3.00586 14.1906 2.43437C13.6191 1.86289 12.7953 1.84805 12.0754 1.84062C11.682 1.8332 11.2812 1.82578 11.0363 1.7293C10.7914 1.63281 10.4723 1.32852 10.1828 1.04648C9.6707 0.556641 9.08437 0 8.3125 0C7.54063 0 6.9543 0.556641 6.44219 1.04648C6.15273 1.32852 5.84844 1.61797 5.58867 1.7293C5.32891 1.84062 4.94297 1.8332 4.54961 1.84062C3.82969 1.84805 3.00586 1.86289 2.43437 2.43437C1.86289 3.00586 1.84805 3.82969 1.84062 4.54961C1.8332 4.94297 1.82578 5.34375 1.7293 5.58867C1.63281 5.83359 1.32852 6.15273 1.04648 6.44219C0.556641 6.9543 0 7.54063 0 8.3125C0 9.08437 0.556641 9.6707 1.04648 10.1828C1.32852 10.4723 1.61797 10.7766 1.7293 11.0363C1.84062 11.2961 1.8332 11.682 1.84062 12.0754C1.84805 12.7953 1.86289 13.6191 2.43437 14.1906C3.00586 14.7621 3.82969 14.777 4.54961 14.7844C4.94297 14.7918 5.34375 14.7992 5.58867 14.8957C5.83359 14.9922 6.15273 15.2965 6.44219 15.5785C6.9543 16.0684 7.54063 16.625 8.3125 16.625C9.08437 16.625 9.6707 16.0684 10.1828 15.5785C10.4723 15.2965 10.7766 15.007 11.0363 14.8957C11.2961 14.7844 11.682 14.7918 12.0754 14.7844C12.7953 14.777 13.6191 14.7621 14.1906 14.1906C14.7621 13.6191 14.777 12.7953 14.7844 12.0754C14.7918 11.682 14.7992 11.2812 14.8957 11.0363C14.9922 10.7914 15.2965 10.4723 15.5785 10.1828C16.0684 9.6707 16.625 9.08437 16.625 8.3125C16.625 7.54063 16.0684 6.9543 15.5785 6.44219V6.44219ZM11.9863 6.96172L7.63711 11.118C7.52467 11.2237 7.37585 11.2822 7.22148 11.2812C7.06939 11.2818 6.92302 11.2233 6.81328 11.118L4.63867 9.03984C4.57836 8.98722 4.5293 8.92295 4.49446 8.85088C4.45962 8.77882 4.43971 8.70045 4.43593 8.6205C4.43214 8.54054 4.44457 8.46065 4.47245 8.38562C4.50033 8.31058 4.5431 8.24197 4.59817 8.18388C4.65325 8.1258 4.71951 8.07945 4.79295 8.04763C4.8664 8.01581 4.94552 7.99916 5.02556 7.9987C5.10561 7.99823 5.18492 8.01396 5.25873 8.04493C5.33254 8.07589 5.39933 8.12147 5.45508 8.17891L7.22148 9.86367L11.1699 6.10078C11.2854 6.00006 11.4353 5.94786 11.5883 5.9551C11.7414 5.96234 11.8857 6.02846 11.9911 6.13963C12.0965 6.25081 12.1549 6.39843 12.154 6.55164C12.1531 6.70484 12.093 6.85178 11.9863 6.96172Z" fill="#FF731D"/>
</svg>
