<svg width="13" height="14" viewBox="0 0 13 14" fill="none" xmlns="http://www.w3.org/2000/svg">
<path d="M10.9872 1.36964H9.6946V0.684818C9.6946 0.503193 9.62651 0.329007 9.5053 0.200579C9.3841 0.0721503 9.21971 0 9.0483 0C8.87688 0 8.71249 0.0721503 8.59129 0.200579C8.47008 0.329007 8.40199 0.503193 8.40199 0.684818V1.36964H4.52415V0.684818C4.52415 0.503193 4.45606 0.329007 4.33485 0.200579C4.21364 0.0721503 4.04925 0 3.87784 0C3.70643 0 3.54204 0.0721503 3.42083 0.200579C3.29963 0.329007 3.23153 0.503193 3.23153 0.684818V1.36964H1.93892C1.42469 1.36964 0.931515 1.58609 0.567897 1.97137C0.204279 2.35666 0 2.87922 0 3.42409V11.6419C0 12.1868 0.204279 12.7093 0.567897 13.0946C0.931515 13.4799 1.42469 13.6964 1.93892 13.6964H10.9872C11.5015 13.6964 11.9946 13.4799 12.3582 13.0946C12.7219 12.7093 12.9261 12.1868 12.9261 11.6419V3.42409C12.9261 2.87922 12.7219 2.35666 12.3582 1.97137C11.9946 1.58609 11.5015 1.36964 10.9872 1.36964V1.36964ZM11.6335 11.6419C11.6335 11.8235 11.5654 11.9977 11.4442 12.1262C11.323 12.2546 11.1586 12.3267 10.9872 12.3267H1.93892C1.76751 12.3267 1.60312 12.2546 1.48191 12.1262C1.36071 11.9977 1.29261 11.8235 1.29261 11.6419V6.84818H11.6335V11.6419ZM11.6335 5.47855H1.29261V3.42409C1.29261 3.24247 1.36071 3.06828 1.48191 2.93985C1.60312 2.81142 1.76751 2.73927 1.93892 2.73927H3.23153V3.42409C3.23153 3.60572 3.29963 3.7799 3.42083 3.90833C3.54204 4.03676 3.70643 4.10891 3.87784 4.10891C4.04925 4.10891 4.21364 4.03676 4.33485 3.90833C4.45606 3.7799 4.52415 3.60572 4.52415 3.42409V2.73927H8.40199V3.42409C8.40199 3.60572 8.47008 3.7799 8.59129 3.90833C8.71249 4.03676 8.87688 4.10891 9.0483 4.10891C9.21971 4.10891 9.3841 4.03676 9.5053 3.90833C9.62651 3.7799 9.6946 3.60572 9.6946 3.42409V2.73927H10.9872C11.1586 2.73927 11.323 2.81142 11.4442 2.93985C11.5654 3.06828 11.6335 3.24247 11.6335 3.42409V5.47855Z" fill="#095896"/>
</svg>
